<?xml version="1.0" encoding="UTF-8" standalone="no"?>
<!DOCTYPE svg PUBLIC "-//W3C//DTD SVG 1.1//EN"
 "http://www.w3.org/Graphics/SVG/1.1/DTD/svg11.dtd">
<!-- Generated by graphviz version 2.38.0 (20140413.2041)
 -->
<!-- Title: controllers_diagram Pages: 1 -->
<svg width="496pt" height="568pt"
 viewBox="0.00 0.00 496.13 568.00" xmlns="http://www.w3.org/2000/svg" xmlns:xlink="http://www.w3.org/1999/xlink">
<g id="graph0" class="graph" transform="scale(1 1) rotate(0) translate(224.587 343.5)">
<title>controllers_diagram</title>
<polygon fill="white" stroke="none" points="-224.587,224.5 -224.587,-343.5 271.545,-343.5 271.545,224.5 -224.587,224.5"/>
<!-- _diagram_info -->
<g id="node1" class="node"><title>_diagram_info</title>
<text text-anchor="start" x="-93.6877" y="-195.1" font-family="Times,serif" font-size="13.00">Controllers diagram</text>
<text text-anchor="start" x="-93.6877" y="-182.1" font-family="Times,serif" font-size="13.00">Date: Mar 16 2015 &#45; 22:42</text>
<text text-anchor="start" x="-93.6877" y="-169.1" font-family="Times,serif" font-size="13.00">Migration version: 20150317004108</text>
<text text-anchor="start" x="-93.6877" y="-156.1" font-family="Times,serif" font-size="13.00">Generated by RailRoady 1.3.0</text>
<text text-anchor="start" x="-93.6877" y="-143.1" font-family="Times,serif" font-size="13.00">http://railroady.prestonlee.com</text>
</g>
<!-- AddressesController -->
<g id="node2" class="node"><title>AddressesController</title>
<path fill="none" stroke="black" d="M148.455,-137C148.455,-137 255.545,-137 255.545,-137 261.545,-137 267.545,-143 267.545,-149 267.545,-149 267.545,-327 267.545,-327 267.545,-333 261.545,-339 255.545,-339 255.545,-339 148.455,-339 148.455,-339 142.455,-339 136.455,-333 136.455,-327 136.455,-327 136.455,-149 136.455,-149 136.455,-143 142.455,-137 148.455,-137"/>
<text text-anchor="middle" x="202" y="-323.8" font-family="Times,serif" font-size="14.00">AddressesController</text>
<polyline fill="none" stroke="black" points="136.455,-317 267.545,-317 "/>
<text text-anchor="start" x="144.455" y="-301.8" font-family="Times,serif" font-size="14.00">create</text>
<text text-anchor="start" x="144.455" y="-287.8" font-family="Times,serif" font-size="14.00">destroy</text>
<text text-anchor="start" x="144.455" y="-273.8" font-family="Times,serif" font-size="14.00">edit</text>
<text text-anchor="start" x="144.455" y="-259.8" font-family="Times,serif" font-size="14.00">index</text>
<text text-anchor="start" x="144.455" y="-245.8" font-family="Times,serif" font-size="14.00">new</text>
<text text-anchor="start" x="144.455" y="-231.8" font-family="Times,serif" font-size="14.00">show</text>
<text text-anchor="start" x="144.455" y="-217.8" font-family="Times,serif" font-size="14.00">update</text>
<polyline fill="none" stroke="black" points="136.455,-211 267.545,-211 "/>
<polyline fill="none" stroke="black" points="136.455,-187 267.545,-187 "/>
<text text-anchor="start" x="144.455" y="-171.8" font-family="Times,serif" font-size="14.00">_layout</text>
<text text-anchor="start" x="144.455" y="-157.8" font-family="Times,serif" font-size="14.00">address_params</text>
<text text-anchor="start" x="144.455" y="-143.8" font-family="Times,serif" font-size="14.00">set_address</text>
</g>
<!-- ApplicationController -->
<g id="node3" class="node"><title>ApplicationController</title>
<path fill="none" stroke="black" d="M114.179,220C114.179,220 229.821,220 229.821,220 235.821,220 241.821,214 241.821,208 241.821,208 241.821,140 241.821,140 241.821,134 235.821,128 229.821,128 229.821,128 114.179,128 114.179,128 108.179,128 102.179,134 102.179,140 102.179,140 102.179,208 102.179,208 102.179,214 108.179,220 114.179,220"/>
<text text-anchor="middle" x="172" y="143.2" font-family="Times,serif" font-size="14.00">ApplicationController</text>
<polyline fill="none" stroke="black" points="102.179,150 241.821,150 "/>
<polyline fill="none" stroke="black" points="102.179,174 241.821,174 "/>
<polyline fill="none" stroke="black" points="102.179,198 241.821,198 "/>
<text text-anchor="start" x="110.179" y="213.2" font-family="Times,serif" font-size="14.00">_layout</text>
</g>
<!-- BusinessesController -->
<g id="node4" class="node"><title>BusinessesController</title>
<path fill="none" stroke="black" d="M-56.4966,118C-56.4966,118 54.4966,118 54.4966,118 60.4966,118 66.4966,112 66.4966,106 66.4966,106 66.4966,-86 66.4966,-86 66.4966,-92 60.4966,-98 54.4966,-98 54.4966,-98 -56.4966,-98 -56.4966,-98 -62.4966,-98 -68.4966,-92 -68.4966,-86 -68.4966,-86 -68.4966,106 -68.4966,106 -68.4966,112 -62.4966,118 -56.4966,118"/>
<text text-anchor="middle" x="-1" y="-82.8" font-family="Times,serif" font-size="14.00">BusinessesController</text>
<polyline fill="none" stroke="black" points="-68.4966,-76 66.4966,-76 "/>
<text text-anchor="start" x="-60.4966" y="-60.8" font-family="Times,serif" font-size="14.00">create</text>
<text text-anchor="start" x="-60.4966" y="-46.8" font-family="Times,serif" font-size="14.00">destroy</text>
<text text-anchor="start" x="-60.4966" y="-32.8" font-family="Times,serif" font-size="14.00">edit</text>
<text text-anchor="start" x="-60.4966" y="-18.8" font-family="Times,serif" font-size="14.00">index</text>
<text text-anchor="start" x="-60.4966" y="-4.8" font-family="Times,serif" font-size="14.00">new</text>
<text text-anchor="start" x="-60.4966" y="9.2" font-family="Times,serif" font-size="14.00">show</text>
<text text-anchor="start" x="-60.4966" y="23.2" font-family="Times,serif" font-size="14.00">signed_in?</text>
<text text-anchor="start" x="-60.4966" y="37.2" font-family="Times,serif" font-size="14.00">update</text>
<polyline fill="none" stroke="black" points="-68.4966,44 66.4966,44 "/>
<polyline fill="none" stroke="black" points="-68.4966,68 66.4966,68 "/>
<text text-anchor="start" x="-60.4966" y="83.2" font-family="Times,serif" font-size="14.00">_layout</text>
<text text-anchor="start" x="-60.4966" y="97.2" font-family="Times,serif" font-size="14.00">business_params</text>
<text text-anchor="start" x="-60.4966" y="111.2" font-family="Times,serif" font-size="14.00">set_business</text>
</g>
<!-- ChargesController -->
<g id="node5" class="node"><title>ChargesController</title>
<path fill="none" stroke="black" d="M-208.587,-1C-208.587,-1 -113.413,-1 -113.413,-1 -107.413,-1 -101.413,-7 -101.413,-13 -101.413,-13 -101.413,-93 -101.413,-93 -101.413,-99 -107.413,-105 -113.413,-105 -113.413,-105 -208.587,-105 -208.587,-105 -214.587,-105 -220.587,-99 -220.587,-93 -220.587,-93 -220.587,-13 -220.587,-13 -220.587,-7 -214.587,-1 -208.587,-1"/>
<text text-anchor="middle" x="-161" y="-89.8" font-family="Times,serif" font-size="14.00">ChargesController</text>
<polyline fill="none" stroke="black" points="-220.587,-83 -101.413,-83 "/>
<text text-anchor="start" x="-212.587" y="-67.8" font-family="Times,serif" font-size="14.00">create</text>
<text text-anchor="start" x="-212.587" y="-53.8" font-family="Times,serif" font-size="14.00">new</text>
<polyline fill="none" stroke="black" points="-220.587,-47 -101.413,-47 "/>
<polyline fill="none" stroke="black" points="-220.587,-23 -101.413,-23 "/>
<text text-anchor="start" x="-212.587" y="-7.8" font-family="Times,serif" font-size="14.00">_layout</text>
</g>
<!-- ServiceItemsController -->
<g id="node6" class="node"><title>ServiceItemsController</title>
<path fill="none" stroke="black" d="M113.686,101C113.686,101 236.314,101 236.314,101 242.314,101 248.314,95 248.314,89 248.314,89 248.314,-89 248.314,-89 248.314,-95 242.314,-101 236.314,-101 236.314,-101 113.686,-101 113.686,-101 107.686,-101 101.686,-95 101.686,-89 101.686,-89 101.686,89 101.686,89 101.686,95 107.686,101 113.686,101"/>
<text text-anchor="middle" x="175" y="-85.8" font-family="Times,serif" font-size="14.00">ServiceItemsController</text>
<polyline fill="none" stroke="black" points="101.686,-79 248.314,-79 "/>
<text text-anchor="start" x="109.686" y="-63.8" font-family="Times,serif" font-size="14.00">create</text>
<text text-anchor="start" x="109.686" y="-49.8" font-family="Times,serif" font-size="14.00">destroy</text>
<text text-anchor="start" x="109.686" y="-35.8" font-family="Times,serif" font-size="14.00">edit</text>
<text text-anchor="start" x="109.686" y="-21.8" font-family="Times,serif" font-size="14.00">index</text>
<text text-anchor="start" x="109.686" y="-7.8" font-family="Times,serif" font-size="14.00">new</text>
<text text-anchor="start" x="109.686" y="6.2" font-family="Times,serif" font-size="14.00">show</text>
<text text-anchor="start" x="109.686" y="20.2" font-family="Times,serif" font-size="14.00">update</text>
<polyline fill="none" stroke="black" points="101.686,27 248.314,27 "/>
<polyline fill="none" stroke="black" points="101.686,51 248.314,51 "/>
<text text-anchor="start" x="109.686" y="66.2" font-family="Times,serif" font-size="14.00">_layout</text>
<text text-anchor="start" x="109.686" y="80.2" font-family="Times,serif" font-size="14.00">service_item_params</text>
<text text-anchor="start" x="109.686" y="94.2" font-family="Times,serif" font-size="14.00">set_service_item</text>
</g>
</g>
</svg>
