<?xml version="1.0" encoding="UTF-8" standalone="no"?>
<!DOCTYPE svg PUBLIC "-//W3C//DTD SVG 1.1//EN"
 "http://www.w3.org/Graphics/SVG/1.1/DTD/svg11.dtd">
<!-- Generated by graphviz version 2.38.0 (20140413.2041)
 -->
<!-- Title: controllers_diagram Pages: 1 -->
<svg width="420pt" height="356pt"
 viewBox="0.00 0.00 420.18 356.00" xmlns="http://www.w3.org/2000/svg" xmlns:xlink="http://www.w3.org/1999/xlink">
<g id="graph0" class="graph" transform="scale(1 1) rotate(0) translate(72.4966 233.5)">
<title>controllers_diagram</title>
<polygon fill="white" stroke="none" points="-72.4966,122.5 -72.4966,-233.5 347.688,-233.5 347.688,122.5 -72.4966,122.5"/>
<!-- _diagram_info -->
<g id="node1" class="node"><title>_diagram_info</title>
<text text-anchor="start" x="144.312" y="-195.1" font-family="Times,serif" font-size="13.00">Controllers diagram</text>
<text text-anchor="start" x="144.312" y="-182.1" font-family="Times,serif" font-size="13.00">Date: Feb 18 2015 &#45; 10:07</text>
<text text-anchor="start" x="144.312" y="-169.1" font-family="Times,serif" font-size="13.00">Migration version: 20150216190751</text>
<text text-anchor="start" x="144.312" y="-156.1" font-family="Times,serif" font-size="13.00">Generated by RailRoady 1.3.0</text>
<text text-anchor="start" x="144.312" y="-143.1" font-family="Times,serif" font-size="13.00">http://railroady.prestonlee.com</text>
</g>
<!-- AddressesController -->
<g id="node2" class="node"><title>AddressesController</title>
<path fill="none" stroke="black" d="M114.455,101C114.455,101 221.545,101 221.545,101 227.545,101 233.545,95 233.545,89 233.545,89 233.545,-89 233.545,-89 233.545,-95 227.545,-101 221.545,-101 221.545,-101 114.455,-101 114.455,-101 108.455,-101 102.455,-95 102.455,-89 102.455,-89 102.455,89 102.455,89 102.455,95 108.455,101 114.455,101"/>
<text text-anchor="middle" x="168" y="-85.8" font-family="Times,serif" font-size="14.00">AddressesController</text>
<polyline fill="none" stroke="black" points="102.455,-79 233.545,-79 "/>
<text text-anchor="start" x="110.455" y="-63.8" font-family="Times,serif" font-size="14.00">create</text>
<text text-anchor="start" x="110.455" y="-49.8" font-family="Times,serif" font-size="14.00">destroy</text>
<text text-anchor="start" x="110.455" y="-35.8" font-family="Times,serif" font-size="14.00">edit</text>
<text text-anchor="start" x="110.455" y="-21.8" font-family="Times,serif" font-size="14.00">index</text>
<text text-anchor="start" x="110.455" y="-7.8" font-family="Times,serif" font-size="14.00">new</text>
<text text-anchor="start" x="110.455" y="6.2" font-family="Times,serif" font-size="14.00">show</text>
<text text-anchor="start" x="110.455" y="20.2" font-family="Times,serif" font-size="14.00">update</text>
<polyline fill="none" stroke="black" points="102.455,27 233.545,27 "/>
<polyline fill="none" stroke="black" points="102.455,51 233.545,51 "/>
<text text-anchor="start" x="110.455" y="66.2" font-family="Times,serif" font-size="14.00">_layout</text>
<text text-anchor="start" x="110.455" y="80.2" font-family="Times,serif" font-size="14.00">address_params</text>
<text text-anchor="start" x="110.455" y="94.2" font-family="Times,serif" font-size="14.00">set_address</text>
</g>
<!-- ApplicationController -->
<g id="node3" class="node"><title>ApplicationController</title>
<path fill="none" stroke="black" d="M-21.8208,-137C-21.8208,-137 93.8208,-137 93.8208,-137 99.8208,-137 105.821,-143 105.821,-149 105.821,-149 105.821,-217 105.821,-217 105.821,-223 99.8208,-229 93.8208,-229 93.8208,-229 -21.8208,-229 -21.8208,-229 -27.8208,-229 -33.8208,-223 -33.8208,-217 -33.8208,-217 -33.8208,-149 -33.8208,-149 -33.8208,-143 -27.8208,-137 -21.8208,-137"/>
<text text-anchor="middle" x="36" y="-213.8" font-family="Times,serif" font-size="14.00">ApplicationController</text>
<polyline fill="none" stroke="black" points="-33.8208,-207 105.821,-207 "/>
<polyline fill="none" stroke="black" points="-33.8208,-183 105.821,-183 "/>
<polyline fill="none" stroke="black" points="-33.8208,-159 105.821,-159 "/>
<text text-anchor="start" x="-25.8208" y="-143.8" font-family="Times,serif" font-size="14.00">_layout</text>
</g>
<!-- BusinessesController -->
<g id="node4" class="node"><title>BusinessesController</title>
<path fill="none" stroke="black" d="M-56.4966,118C-56.4966,118 54.4966,118 54.4966,118 60.4966,118 66.4966,112 66.4966,106 66.4966,106 66.4966,-86 66.4966,-86 66.4966,-92 60.4966,-98 54.4966,-98 54.4966,-98 -56.4966,-98 -56.4966,-98 -62.4966,-98 -68.4966,-92 -68.4966,-86 -68.4966,-86 -68.4966,106 -68.4966,106 -68.4966,112 -62.4966,118 -56.4966,118"/>
<text text-anchor="middle" x="-1" y="-82.8" font-family="Times,serif" font-size="14.00">BusinessesController</text>
<polyline fill="none" stroke="black" points="-68.4966,-76 66.4966,-76 "/>
<text text-anchor="start" x="-60.4966" y="-60.8" font-family="Times,serif" font-size="14.00">create</text>
<text text-anchor="start" x="-60.4966" y="-46.8" font-family="Times,serif" font-size="14.00">destroy</text>
<text text-anchor="start" x="-60.4966" y="-32.8" font-family="Times,serif" font-size="14.00">edit</text>
<text text-anchor="start" x="-60.4966" y="-18.8" font-family="Times,serif" font-size="14.00">index</text>
<text text-anchor="start" x="-60.4966" y="-4.8" font-family="Times,serif" font-size="14.00">new</text>
<text text-anchor="start" x="-60.4966" y="9.2" font-family="Times,serif" font-size="14.00">show</text>
<text text-anchor="start" x="-60.4966" y="23.2" font-family="Times,serif" font-size="14.00">signed_in?</text>
<text text-anchor="start" x="-60.4966" y="37.2" font-family="Times,serif" font-size="14.00">update</text>
<polyline fill="none" stroke="black" points="-68.4966,44 66.4966,44 "/>
<polyline fill="none" stroke="black" points="-68.4966,68 66.4966,68 "/>
<text text-anchor="start" x="-60.4966" y="83.2" font-family="Times,serif" font-size="14.00">_layout</text>
<text text-anchor="start" x="-60.4966" y="97.2" font-family="Times,serif" font-size="14.00">business_params</text>
<text text-anchor="start" x="-60.4966" y="111.2" font-family="Times,serif" font-size="14.00">set_business</text>
</g>
</g>
</svg>
