<?xml version="1.0" encoding="UTF-8" standalone="no"?>
<!DOCTYPE svg PUBLIC "-//W3C//DTD SVG 1.1//EN"
 "http://www.w3.org/Graphics/SVG/1.1/DTD/svg11.dtd">
<!-- Generated by graphviz version 2.38.0 (20140413.2041)
 -->
<!-- Title: controllers_diagram Pages: 1 -->
<svg width="555pt" height="599pt"
 viewBox="0.00 0.00 555.30 599.00" xmlns="http://www.w3.org/2000/svg" xmlns:xlink="http://www.w3.org/1999/xlink">
<g id="graph0" class="graph" transform="scale(1 1) rotate(0) translate(241.612 357.5)">
<title>controllers_diagram</title>
<polygon fill="white" stroke="none" points="-241.612,241.5 -241.612,-357.5 313.688,-357.5 313.688,241.5 -241.612,241.5"/>
<!-- _diagram_info -->
<g id="node1" class="node"><title>_diagram_info</title>
<text text-anchor="start" x="110.312" y="144.9" font-family="Times,serif" font-size="13.00">Controllers diagram</text>
<text text-anchor="start" x="110.312" y="157.9" font-family="Times,serif" font-size="13.00">Date: May 06 2015 &#45; 16:20</text>
<text text-anchor="start" x="110.312" y="170.9" font-family="Times,serif" font-size="13.00">Migration version: 20150415215204</text>
<text text-anchor="start" x="110.312" y="183.9" font-family="Times,serif" font-size="13.00">Generated by RailRoady 1.3.0</text>
<text text-anchor="start" x="110.312" y="196.9" font-family="Times,serif" font-size="13.00">http://railroady.prestonlee.com</text>
</g>
<!-- ApplicationController -->
<g id="node2" class="node"><title>ApplicationController</title>
<path fill="none" stroke="black" d="M-191.821,-205C-191.821,-205 -76.1792,-205 -76.1792,-205 -70.1792,-205 -64.1792,-211 -64.1792,-217 -64.1792,-217 -64.1792,-285 -64.1792,-285 -64.1792,-291 -70.1792,-297 -76.1792,-297 -76.1792,-297 -191.821,-297 -191.821,-297 -197.821,-297 -203.821,-291 -203.821,-285 -203.821,-285 -203.821,-217 -203.821,-217 -203.821,-211 -197.821,-205 -191.821,-205"/>
<text text-anchor="middle" x="-134" y="-281.8" font-family="Times,serif" font-size="14.00">ApplicationController</text>
<polyline fill="none" stroke="black" points="-203.821,-275 -64.1792,-275 "/>
<polyline fill="none" stroke="black" points="-203.821,-251 -64.1792,-251 "/>
<polyline fill="none" stroke="black" points="-203.821,-227 -64.1792,-227 "/>
<text text-anchor="start" x="-195.821" y="-211.8" font-family="Times,serif" font-size="14.00">_layout</text>
</g>
<!-- BusinessesController -->
<g id="node3" class="node"><title>BusinessesController</title>
<path fill="none" stroke="black" d="M147.503,-137C147.503,-137 258.497,-137 258.497,-137 264.497,-137 270.497,-143 270.497,-149 270.497,-149 270.497,-341 270.497,-341 270.497,-347 264.497,-353 258.497,-353 258.497,-353 147.503,-353 147.503,-353 141.503,-353 135.503,-347 135.503,-341 135.503,-341 135.503,-149 135.503,-149 135.503,-143 141.503,-137 147.503,-137"/>
<text text-anchor="middle" x="203" y="-337.8" font-family="Times,serif" font-size="14.00">BusinessesController</text>
<polyline fill="none" stroke="black" points="135.503,-331 270.497,-331 "/>
<text text-anchor="start" x="143.503" y="-315.8" font-family="Times,serif" font-size="14.00">create</text>
<text text-anchor="start" x="143.503" y="-301.8" font-family="Times,serif" font-size="14.00">destroy</text>
<text text-anchor="start" x="143.503" y="-287.8" font-family="Times,serif" font-size="14.00">edit</text>
<text text-anchor="start" x="143.503" y="-273.8" font-family="Times,serif" font-size="14.00">index</text>
<text text-anchor="start" x="143.503" y="-259.8" font-family="Times,serif" font-size="14.00">new</text>
<text text-anchor="start" x="143.503" y="-245.8" font-family="Times,serif" font-size="14.00">show</text>
<text text-anchor="start" x="143.503" y="-231.8" font-family="Times,serif" font-size="14.00">signed_in?</text>
<text text-anchor="start" x="143.503" y="-217.8" font-family="Times,serif" font-size="14.00">update</text>
<polyline fill="none" stroke="black" points="135.503,-211 270.497,-211 "/>
<polyline fill="none" stroke="black" points="135.503,-187 270.497,-187 "/>
<text text-anchor="start" x="143.503" y="-171.8" font-family="Times,serif" font-size="14.00">_layout</text>
<text text-anchor="start" x="143.503" y="-157.8" font-family="Times,serif" font-size="14.00">business_params</text>
<text text-anchor="start" x="143.503" y="-143.8" font-family="Times,serif" font-size="14.00">set_business</text>
</g>
<!-- ChargesController -->
<g id="node4" class="node"><title>ChargesController</title>
<path fill="none" stroke="black" d="M-225.587,-69C-225.587,-69 -130.413,-69 -130.413,-69 -124.413,-69 -118.413,-75 -118.413,-81 -118.413,-81 -118.413,-161 -118.413,-161 -118.413,-167 -124.413,-173 -130.413,-173 -130.413,-173 -225.587,-173 -225.587,-173 -231.587,-173 -237.587,-167 -237.587,-161 -237.587,-161 -237.587,-81 -237.587,-81 -237.587,-75 -231.587,-69 -225.587,-69"/>
<text text-anchor="middle" x="-178" y="-157.8" font-family="Times,serif" font-size="14.00">ChargesController</text>
<polyline fill="none" stroke="black" points="-237.587,-151 -118.413,-151 "/>
<text text-anchor="start" x="-229.587" y="-135.8" font-family="Times,serif" font-size="14.00">create</text>
<text text-anchor="start" x="-229.587" y="-121.8" font-family="Times,serif" font-size="14.00">new</text>
<polyline fill="none" stroke="black" points="-237.587,-115 -118.413,-115 "/>
<polyline fill="none" stroke="black" points="-237.587,-91 -118.413,-91 "/>
<text text-anchor="start" x="-229.587" y="-75.8" font-family="Times,serif" font-size="14.00">_layout</text>
</g>
<!-- LocationsController -->
<g id="node5" class="node"><title>LocationsController</title>
<path fill="none" stroke="black" d="M-22.376,-137C-22.376,-137 82.376,-137 82.376,-137 88.376,-137 94.376,-143 94.376,-149 94.376,-149 94.376,-327 94.376,-327 94.376,-333 88.376,-339 82.376,-339 82.376,-339 -22.376,-339 -22.376,-339 -28.376,-339 -34.376,-333 -34.376,-327 -34.376,-327 -34.376,-149 -34.376,-149 -34.376,-143 -28.376,-137 -22.376,-137"/>
<text text-anchor="middle" x="30" y="-323.8" font-family="Times,serif" font-size="14.00">LocationsController</text>
<polyline fill="none" stroke="black" points="-34.376,-317 94.376,-317 "/>
<text text-anchor="start" x="-26.376" y="-301.8" font-family="Times,serif" font-size="14.00">create</text>
<text text-anchor="start" x="-26.376" y="-287.8" font-family="Times,serif" font-size="14.00">destroy</text>
<text text-anchor="start" x="-26.376" y="-273.8" font-family="Times,serif" font-size="14.00">edit</text>
<text text-anchor="start" x="-26.376" y="-259.8" font-family="Times,serif" font-size="14.00">index</text>
<text text-anchor="start" x="-26.376" y="-245.8" font-family="Times,serif" font-size="14.00">new</text>
<text text-anchor="start" x="-26.376" y="-231.8" font-family="Times,serif" font-size="14.00">show</text>
<text text-anchor="start" x="-26.376" y="-217.8" font-family="Times,serif" font-size="14.00">update</text>
<polyline fill="none" stroke="black" points="-34.376,-211 94.376,-211 "/>
<polyline fill="none" stroke="black" points="-34.376,-187 94.376,-187 "/>
<text text-anchor="start" x="-26.376" y="-171.8" font-family="Times,serif" font-size="14.00">_layout</text>
<text text-anchor="start" x="-26.376" y="-157.8" font-family="Times,serif" font-size="14.00">address_params</text>
<text text-anchor="start" x="-26.376" y="-143.8" font-family="Times,serif" font-size="14.00">set_address</text>
</g>
<!-- ServiceItemsController -->
<g id="node6" class="node"><title>ServiceItemsController</title>
<path fill="none" stroke="black" d="M-73.314,118C-73.314,118 49.314,118 49.314,118 55.314,118 61.314,112 61.314,106 61.314,106 61.314,-86 61.314,-86 61.314,-92 55.314,-98 49.314,-98 49.314,-98 -73.314,-98 -73.314,-98 -79.314,-98 -85.314,-92 -85.314,-86 -85.314,-86 -85.314,106 -85.314,106 -85.314,112 -79.314,118 -73.314,118"/>
<text text-anchor="middle" x="-12" y="-82.8" font-family="Times,serif" font-size="14.00">ServiceItemsController</text>
<polyline fill="none" stroke="black" points="-85.314,-76 61.314,-76 "/>
<text text-anchor="start" x="-77.314" y="-60.8" font-family="Times,serif" font-size="14.00">create</text>
<text text-anchor="start" x="-77.314" y="-46.8" font-family="Times,serif" font-size="14.00">destroy</text>
<text text-anchor="start" x="-77.314" y="-32.8" font-family="Times,serif" font-size="14.00">edit</text>
<text text-anchor="start" x="-77.314" y="-18.8" font-family="Times,serif" font-size="14.00">index</text>
<text text-anchor="start" x="-77.314" y="-4.8" font-family="Times,serif" font-size="14.00">new</text>
<text text-anchor="start" x="-77.314" y="9.2" font-family="Times,serif" font-size="14.00">show</text>
<text text-anchor="start" x="-77.314" y="23.2" font-family="Times,serif" font-size="14.00">update</text>
<polyline fill="none" stroke="black" points="-85.314,30 61.314,30 "/>
<polyline fill="none" stroke="black" points="-85.314,54 61.314,54 "/>
<text text-anchor="start" x="-77.314" y="69.2" font-family="Times,serif" font-size="14.00">_layout</text>
<text text-anchor="start" x="-77.314" y="83.2" font-family="Times,serif" font-size="14.00">service_item_params</text>
<text text-anchor="start" x="-77.314" y="97.2" font-family="Times,serif" font-size="14.00">set_list_items</text>
<text text-anchor="start" x="-77.314" y="111.2" font-family="Times,serif" font-size="14.00">set_service_item</text>
</g>
<!-- ServiceListsController -->
<g id="node7" class="node"><title>ServiceListsController</title>
<path fill="none" stroke="black" d="M113.624,101C113.624,101 232.376,101 232.376,101 238.376,101 244.376,95 244.376,89 244.376,89 244.376,-89 244.376,-89 244.376,-95 238.376,-101 232.376,-101 232.376,-101 113.624,-101 113.624,-101 107.624,-101 101.624,-95 101.624,-89 101.624,-89 101.624,89 101.624,89 101.624,95 107.624,101 113.624,101"/>
<text text-anchor="middle" x="173" y="-85.8" font-family="Times,serif" font-size="14.00">ServiceListsController</text>
<polyline fill="none" stroke="black" points="101.624,-79 244.376,-79 "/>
<text text-anchor="start" x="109.624" y="-63.8" font-family="Times,serif" font-size="14.00">create</text>
<text text-anchor="start" x="109.624" y="-49.8" font-family="Times,serif" font-size="14.00">destroy</text>
<text text-anchor="start" x="109.624" y="-35.8" font-family="Times,serif" font-size="14.00">edit</text>
<text text-anchor="start" x="109.624" y="-21.8" font-family="Times,serif" font-size="14.00">index</text>
<text text-anchor="start" x="109.624" y="-7.8" font-family="Times,serif" font-size="14.00">new</text>
<text text-anchor="start" x="109.624" y="6.2" font-family="Times,serif" font-size="14.00">show</text>
<text text-anchor="start" x="109.624" y="20.2" font-family="Times,serif" font-size="14.00">update</text>
<polyline fill="none" stroke="black" points="101.624,27 244.376,27 "/>
<polyline fill="none" stroke="black" points="101.624,51 244.376,51 "/>
<text text-anchor="start" x="109.624" y="66.2" font-family="Times,serif" font-size="14.00">_layout</text>
<text text-anchor="start" x="109.624" y="80.2" font-family="Times,serif" font-size="14.00">service_list_params</text>
<text text-anchor="start" x="109.624" y="94.2" font-family="Times,serif" font-size="14.00">set_service_list</text>
</g>
<!-- WebViewerController -->
<g id="node8" class="node"><title>WebViewerController</title>
<path fill="none" stroke="black" d="M-225.612,237C-225.612,237 -110.388,237 -110.388,237 -104.388,237 -98.3877,231 -98.3877,225 -98.3877,225 -98.3877,159 -98.3877,159 -98.3877,153 -104.388,147 -110.388,147 -110.388,147 -225.612,147 -225.612,147 -231.612,147 -237.612,153 -237.612,159 -237.612,159 -237.612,225 -237.612,225 -237.612,231 -231.612,237 -225.612,237"/>
<text text-anchor="middle" x="-168" y="162.2" font-family="Times,serif" font-size="14.00">WebViewerController</text>
<polyline fill="none" stroke="black" points="-237.612,169 -98.3877,169 "/>
<text text-anchor="start" x="-229.612" y="184.2" font-family="Times,serif" font-size="14.00">index</text>
<polyline fill="none" stroke="black" points="-237.612,191 -98.3877,191 "/>
<polyline fill="none" stroke="black" points="-237.612,215 -98.3877,215 "/>
<text text-anchor="start" x="-229.612" y="230.2" font-family="Times,serif" font-size="14.00">_layout</text>
</g>
</g>
</svg>
