<?xml version="1.0" encoding="UTF-8" standalone="no"?>
<!DOCTYPE svg PUBLIC "-//W3C//DTD SVG 1.1//EN"
 "http://www.w3.org/Graphics/SVG/1.1/DTD/svg11.dtd">
<!-- Generated by graphviz version 2.38.0 (20140413.2041)
 -->
<!-- Title: models_diagram Pages: 1 -->
<svg width="389pt" height="297pt"
 viewBox="0.00 0.00 389.07 297.00" xmlns="http://www.w3.org/2000/svg" xmlns:xlink="http://www.w3.org/1999/xlink">
<g id="graph0" class="graph" transform="scale(1 1) rotate(0) translate(4 293)">
<title>models_diagram</title>
<polygon fill="white" stroke="none" points="-4,4 -4,-293 385.069,-293 385.069,4 -4,4"/>
<!-- _diagram_info -->
<g id="node1" class="node"><title>_diagram_info</title>
<text text-anchor="start" x="8" y="-274.6" font-family="Times,serif" font-size="13.00">Models diagram</text>
<text text-anchor="start" x="8" y="-261.6" font-family="Times,serif" font-size="13.00">Date: Mar 16 2015 &#45; 22:42</text>
<text text-anchor="start" x="8" y="-248.6" font-family="Times,serif" font-size="13.00">Migration version: 20150317004108</text>
<text text-anchor="start" x="8" y="-235.6" font-family="Times,serif" font-size="13.00">Generated by RailRoady 1.3.0</text>
<text text-anchor="start" x="8" y="-222.6" font-family="Times,serif" font-size="13.00">http://railroady.prestonlee.com</text>
</g>
<!-- Address -->
<g id="node2" class="node"><title>Address</title>
<ellipse fill="none" stroke="black" cx="185.688" cy="-90" rx="39.18" ry="18"/>
<text text-anchor="middle" x="185.688" y="-85.8" font-family="Times,serif" font-size="14.00">Address</text>
</g>
<!-- Business -->
<g id="node3" class="node"><title>Business</title>
<ellipse fill="none" stroke="black" cx="252.688" cy="-162" rx="41.6111" ry="18"/>
<text text-anchor="middle" x="252.688" y="-157.8" font-family="Times,serif" font-size="14.00">Business</text>
</g>
<!-- Business&#45;&gt;Address -->
<g id="edge1" class="edge"><title>Business&#45;&gt;Address</title>
<path fill="none" stroke="#fe977f" d="M231.816,-139.194C224.293,-131.334 215.775,-122.434 208.124,-114.441"/>
<ellipse fill="none" stroke="#fe977f" cx="234.719" cy="-142.226" rx="4.00002" ry="4.00002"/>
<polygon fill="#fe977f" stroke="#fe977f" points="207.746,-114.045 204.082,-103.71 204.288,-110.433 200.831,-106.821 200.831,-106.821 200.831,-106.821 204.288,-110.433 197.58,-109.933 207.746,-114.045 207.746,-114.045"/>
</g>
<!-- ServiceItem -->
<g id="node4" class="node"><title>ServiceItem</title>
<ellipse fill="none" stroke="black" cx="291.688" cy="-18" rx="52.6607" ry="18"/>
<text text-anchor="middle" x="291.688" y="-13.8" font-family="Times,serif" font-size="14.00">ServiceItem</text>
</g>
<!-- Business&#45;&gt;ServiceItem -->
<g id="edge2" class="edge"><title>Business&#45;&gt;ServiceItem</title>
<path fill="none" stroke="#899c9a" d="M257.073,-135.511C260.415,-117.576 265.491,-93.1051 271.688,-72 274.277,-63.1829 277.64,-53.7415 280.868,-45.3062"/>
<ellipse fill="none" stroke="#899c9a" cx="256.291" cy="-139.812" rx="4.00001" ry="4.00001"/>
<polygon fill="#899c9a" stroke="#899c9a" points="280.881,-45.2706 288.728,-37.6099 282.711,-40.6172 284.54,-35.9637 284.54,-35.9637 284.54,-35.9637 282.711,-40.6172 280.352,-34.3176 280.881,-45.2706 280.881,-45.2706"/>
</g>
<!-- ServiceList -->
<g id="node5" class="node"><title>ServiceList</title>
<ellipse fill="none" stroke="black" cx="330.688" cy="-90" rx="50.2637" ry="18"/>
<text text-anchor="middle" x="330.688" y="-85.8" font-family="Times,serif" font-size="14.00">ServiceList</text>
</g>
<!-- Business&#45;&gt;ServiceList -->
<g id="edge3" class="edge"><title>Business&#45;&gt;ServiceList</title>
<path fill="none" stroke="#b52034" d="M276.271,-139.835C285.463,-131.586 296.016,-122.115 305.368,-113.723"/>
<ellipse fill="none" stroke="#b52034" cx="272.975" cy="-142.793" rx="4.00002" ry="4.00002"/>
<polygon fill="#b52034" stroke="#b52034" points="305.442,-113.656 315.89,-110.326 309.163,-110.317 312.885,-106.977 312.885,-106.977 312.885,-106.977 309.163,-110.317 309.879,-103.628 305.442,-113.656 305.442,-113.656"/>
</g>
<!-- ServiceList&#45;&gt;ServiceItem -->
<g id="edge4" class="edge"><title>ServiceList&#45;&gt;ServiceItem</title>
<path fill="none" stroke="#4dad2a" d="M317.315,-64.9976C313.716,-58.5373 309.806,-51.5206 306.151,-44.959"/>
<ellipse fill="none" stroke="#4dad2a" cx="319.3" cy="-68.5607" rx="4.00002" ry="4.00002"/>
<polygon fill="#4dad2a" stroke="#4dad2a" points="305.909,-44.5247 304.973,-33.5988 303.475,-40.1568 301.042,-35.789 301.042,-35.789 301.042,-35.789 303.475,-40.1568 297.111,-37.9792 305.909,-44.5247 305.909,-44.5247"/>
</g>
<!-- User -->
<g id="node6" class="node"><title>User</title>
<ellipse fill="none" stroke="black" cx="252.688" cy="-252.5" rx="27" ry="18"/>
<text text-anchor="middle" x="252.688" y="-248.3" font-family="Times,serif" font-size="14.00">User</text>
</g>
<!-- User&#45;&gt;Business -->
<g id="edge5" class="edge"><title>User&#45;&gt;Business</title>
<path fill="none" stroke="#9c834a" d="M252.688,-226.189C252.688,-214.277 252.688,-200.109 252.688,-188.21"/>
<ellipse fill="none" stroke="#9c834a" cx="252.688" cy="-230.436" rx="4" ry="4"/>
<ellipse fill="#9c834a" stroke="#9c834a" cx="252.688" cy="-184.011" rx="4" ry="4"/>
</g>
</g>
</svg>
