<?xml version="1.0" encoding="UTF-8" standalone="no"?>
<!DOCTYPE svg PUBLIC "-//W3C//DTD SVG 1.1//EN"
 "http://www.w3.org/Graphics/SVG/1.1/DTD/svg11.dtd">
<!-- Generated by graphviz version 2.38.0 (20140413.2041)
 -->
<!-- Title: models_diagram Pages: 1 -->
<svg width="302pt" height="225pt"
 viewBox="0.00 0.00 302.24 225.00" xmlns="http://www.w3.org/2000/svg" xmlns:xlink="http://www.w3.org/1999/xlink">
<g id="graph0" class="graph" transform="scale(1 1) rotate(0) translate(4 221)">
<title>models_diagram</title>
<polygon fill="white" stroke="none" points="-4,4 -4,-221 298.243,-221 298.243,4 -4,4"/>
<!-- _diagram_info -->
<g id="node1" class="node"><title>_diagram_info</title>
<text text-anchor="start" x="8" y="-202.6" font-family="Times,serif" font-size="13.00">Models diagram</text>
<text text-anchor="start" x="8" y="-189.6" font-family="Times,serif" font-size="13.00">Date: Feb 18 2015 &#45; 10:07</text>
<text text-anchor="start" x="8" y="-176.6" font-family="Times,serif" font-size="13.00">Migration version: 20150216190751</text>
<text text-anchor="start" x="8" y="-163.6" font-family="Times,serif" font-size="13.00">Generated by RailRoady 1.3.0</text>
<text text-anchor="start" x="8" y="-150.6" font-family="Times,serif" font-size="13.00">http://railroady.prestonlee.com</text>
</g>
<!-- Address -->
<g id="node2" class="node"><title>Address</title>
<ellipse fill="none" stroke="black" cx="252.688" cy="-18" rx="39.18" ry="18"/>
<text text-anchor="middle" x="252.688" y="-13.8" font-family="Times,serif" font-size="14.00">Address</text>
</g>
<!-- Business -->
<g id="node3" class="node"><title>Business</title>
<ellipse fill="none" stroke="black" cx="252.688" cy="-90" rx="41.6111" ry="18"/>
<text text-anchor="middle" x="252.688" y="-85.8" font-family="Times,serif" font-size="14.00">Business</text>
</g>
<!-- Business&#45;&gt;Address -->
<g id="edge1" class="edge"><title>Business&#45;&gt;Address</title>
<path fill="none" stroke="#f6a385" d="M252.688,-63.6398C252.688,-58.0629 252.688,-52.1319 252.688,-46.4761"/>
<ellipse fill="none" stroke="#f6a385" cx="252.688" cy="-67.6966" rx="4" ry="4"/>
<polygon fill="#f6a385" stroke="#f6a385" points="252.688,-46.1043 257.188,-36.1043 252.688,-41.1043 252.688,-36.1043 252.688,-36.1043 252.688,-36.1043 252.688,-41.1043 248.188,-36.1044 252.688,-46.1043 252.688,-46.1043"/>
</g>
<!-- User -->
<g id="node4" class="node"><title>User</title>
<ellipse fill="none" stroke="black" cx="252.688" cy="-180.5" rx="27" ry="18"/>
<text text-anchor="middle" x="252.688" y="-176.3" font-family="Times,serif" font-size="14.00">User</text>
</g>
<!-- User&#45;&gt;Business -->
<g id="edge2" class="edge"><title>User&#45;&gt;Business</title>
<path fill="none" stroke="#55abcc" d="M252.688,-154.189C252.688,-142.277 252.688,-128.109 252.688,-116.21"/>
<ellipse fill="none" stroke="#55abcc" cx="252.688" cy="-158.436" rx="4" ry="4"/>
<ellipse fill="#55abcc" stroke="#55abcc" cx="252.688" cy="-112.011" rx="4" ry="4"/>
</g>
</g>
</svg>
