<?xml version="1.0" encoding="UTF-8" standalone="no"?>
<!DOCTYPE svg PUBLIC "-//W3C//DTD SVG 1.1//EN"
 "http://www.w3.org/Graphics/SVG/1.1/DTD/svg11.dtd">
<!-- Generated by graphviz version 2.38.0 (20140413.2041)
 -->
<!-- Title: models_diagram Pages: 1 -->
<svg width="302pt" height="225pt"
 viewBox="0.00 0.00 302.24 225.00" xmlns="http://www.w3.org/2000/svg" xmlns:xlink="http://www.w3.org/1999/xlink">
<g id="graph0" class="graph" transform="scale(1 1) rotate(0) translate(4 221)">
<title>models_diagram</title>
<polygon fill="white" stroke="none" points="-4,4 -4,-221 298.243,-221 298.243,4 -4,4"/>
<!-- _diagram_info -->
<g id="node1" class="node"><title>_diagram_info</title>
<text text-anchor="start" x="8" y="-202.6" font-family="Times,serif" font-size="13.00">Models diagram</text>
<text text-anchor="start" x="8" y="-189.6" font-family="Times,serif" font-size="13.00">Date: Mar 10 2015 &#45; 15:17</text>
<text text-anchor="start" x="8" y="-176.6" font-family="Times,serif" font-size="13.00">Migration version: 20150310010223</text>
<text text-anchor="start" x="8" y="-163.6" font-family="Times,serif" font-size="13.00">Generated by RailRoady 1.3.0</text>
<text text-anchor="start" x="8" y="-150.6" font-family="Times,serif" font-size="13.00">http://railroady.prestonlee.com</text>
</g>
<!-- Address -->
<g id="node2" class="node"><title>Address</title>
<ellipse fill="none" stroke="black" cx="252.688" cy="-18" rx="39.18" ry="18"/>
<text text-anchor="middle" x="252.688" y="-13.8" font-family="Times,serif" font-size="14.00">Address</text>
</g>
<!-- Business -->
<g id="node3" class="node"><title>Business</title>
<ellipse fill="none" stroke="black" cx="252.688" cy="-90" rx="41.6111" ry="18"/>
<text text-anchor="middle" x="252.688" y="-85.8" font-family="Times,serif" font-size="14.00">Business</text>
</g>
<!-- Business&#45;&gt;Address -->
<g id="edge1" class="edge"><title>Business&#45;&gt;Address</title>
<path fill="none" stroke="#108222" d="M252.688,-63.6398C252.688,-58.0629 252.688,-52.1319 252.688,-46.4761"/>
<ellipse fill="none" stroke="#108222" cx="252.688" cy="-67.6966" rx="4" ry="4"/>
<polygon fill="#108222" stroke="#108222" points="252.688,-46.1043 257.188,-36.1043 252.688,-41.1043 252.688,-36.1043 252.688,-36.1043 252.688,-36.1043 252.688,-41.1043 248.188,-36.1044 252.688,-46.1043 252.688,-46.1043"/>
</g>
<!-- ServiceItem -->
<g id="node4" class="node"><title>ServiceItem</title>
<ellipse fill="none" stroke="black" cx="142.688" cy="-18" rx="52.6607" ry="18"/>
<text text-anchor="middle" x="142.688" y="-13.8" font-family="Times,serif" font-size="14.00">ServiceItem</text>
</g>
<!-- Business&#45;&gt;ServiceItem -->
<g id="edge2" class="edge"><title>Business&#45;&gt;ServiceItem</title>
<path fill="none" stroke="#996579" d="M223.375,-70.3467C208.57,-60.9254 190.563,-49.466 175.319,-39.7652"/>
<ellipse fill="none" stroke="#996579" cx="226.788" cy="-72.518" rx="4.00002" ry="4.00002"/>
<polygon fill="#996579" stroke="#996579" points="175.144,-39.6542 169.124,-30.4889 170.926,-36.9698 166.708,-34.2854 166.708,-34.2854 166.708,-34.2854 170.926,-36.9698 164.292,-38.0819 175.144,-39.6542 175.144,-39.6542"/>
</g>
<!-- ServiceList -->
<g id="node5" class="node"><title>ServiceList</title>
<ellipse fill="none" stroke="black" cx="142.688" cy="-90" rx="50.2637" ry="18"/>
<text text-anchor="middle" x="142.688" y="-85.8" font-family="Times,serif" font-size="14.00">ServiceList</text>
</g>
<!-- ServiceList&#45;&gt;ServiceItem -->
<g id="edge3" class="edge"><title>ServiceList&#45;&gt;ServiceItem</title>
<path fill="none" stroke="#f2fadb" d="M142.688,-63.6398C142.688,-58.0629 142.688,-52.1319 142.688,-46.4761"/>
<ellipse fill="none" stroke="#f2fadb" cx="142.688" cy="-67.6966" rx="4" ry="4"/>
<polygon fill="#f2fadb" stroke="#f2fadb" points="142.688,-46.1043 147.188,-36.1043 142.688,-41.1043 142.688,-36.1043 142.688,-36.1043 142.688,-36.1043 142.688,-41.1043 138.188,-36.1044 142.688,-46.1043 142.688,-46.1043"/>
</g>
<!-- User -->
<g id="node6" class="node"><title>User</title>
<ellipse fill="none" stroke="black" cx="252.688" cy="-180.5" rx="27" ry="18"/>
<text text-anchor="middle" x="252.688" y="-176.3" font-family="Times,serif" font-size="14.00">User</text>
</g>
<!-- User&#45;&gt;Business -->
<g id="edge4" class="edge"><title>User&#45;&gt;Business</title>
<path fill="none" stroke="#889830" d="M252.688,-154.189C252.688,-142.277 252.688,-128.109 252.688,-116.21"/>
<ellipse fill="none" stroke="#889830" cx="252.688" cy="-158.436" rx="4" ry="4"/>
<ellipse fill="#889830" stroke="#889830" cx="252.688" cy="-112.011" rx="4" ry="4"/>
</g>
</g>
</svg>
