<?xml version="1.0" encoding="UTF-8" standalone="no"?>
<!DOCTYPE svg PUBLIC "-//W3C//DTD SVG 1.1//EN"
 "http://www.w3.org/Graphics/SVG/1.1/DTD/svg11.dtd">
<!-- Generated by graphviz version 2.38.0 (20140413.2041)
 -->
<!-- Title: models_diagram Pages: 1 -->
<svg width="497pt" height="1136pt"
 viewBox="0.00 0.00 497.19 1136.00" xmlns="http://www.w3.org/2000/svg" xmlns:xlink="http://www.w3.org/1999/xlink">
<g id="graph0" class="graph" transform="scale(1 1) rotate(0) translate(4 1132)">
<title>models_diagram</title>
<polygon fill="white" stroke="none" points="-4,4 -4,-1132 493.193,-1132 493.193,4 -4,4"/>
<!-- _diagram_info -->
<g id="node1" class="node"><title>_diagram_info</title>
<text text-anchor="start" x="8" y="-1015.6" font-family="Times,serif" font-size="13.00">Models diagram</text>
<text text-anchor="start" x="8" y="-1002.6" font-family="Times,serif" font-size="13.00">Date: Mar 16 2015 &#45; 22:42</text>
<text text-anchor="start" x="8" y="-989.6" font-family="Times,serif" font-size="13.00">Migration version: 20150317004108</text>
<text text-anchor="start" x="8" y="-976.6" font-family="Times,serif" font-size="13.00">Generated by RailRoady 1.3.0</text>
<text text-anchor="start" x="8" y="-963.6" font-family="Times,serif" font-size="13.00">http://railroady.prestonlee.com</text>
</g>
<!-- Address -->
<g id="node2" class="node"><title>Address</title>
<path fill="none" stroke="black" d="M143.679,-179.5C143.679,-179.5 287.697,-179.5 287.697,-179.5 293.697,-179.5 299.697,-185.5 299.697,-191.5 299.697,-191.5 299.697,-351.5 299.697,-351.5 299.697,-357.5 293.697,-363.5 287.697,-363.5 287.697,-363.5 143.679,-363.5 143.679,-363.5 137.679,-363.5 131.679,-357.5 131.679,-351.5 131.679,-351.5 131.679,-191.5 131.679,-191.5 131.679,-185.5 137.679,-179.5 143.679,-179.5"/>
<text text-anchor="middle" x="215.688" y="-348.3" font-family="Times,serif" font-size="14.00">Address</text>
<polyline fill="none" stroke="black" points="131.679,-341.5 299.697,-341.5 "/>
<text text-anchor="start" x="139.679" y="-326.3" font-family="Times,serif" font-size="14.00">id :integer</text>
<text text-anchor="start" x="139.679" y="-312.3" font-family="Times,serif" font-size="14.00">street :string</text>
<text text-anchor="start" x="139.679" y="-298.3" font-family="Times,serif" font-size="14.00">city :string</text>
<text text-anchor="start" x="139.679" y="-284.3" font-family="Times,serif" font-size="14.00">geographicalRegion :string</text>
<text text-anchor="start" x="139.679" y="-270.3" font-family="Times,serif" font-size="14.00">country :string</text>
<text text-anchor="start" x="139.679" y="-256.3" font-family="Times,serif" font-size="14.00">postal_code :string</text>
<text text-anchor="start" x="139.679" y="-242.3" font-family="Times,serif" font-size="14.00">business_id :integer</text>
<text text-anchor="start" x="139.679" y="-228.3" font-family="Times,serif" font-size="14.00">created_at :datetime</text>
<text text-anchor="start" x="139.679" y="-214.3" font-family="Times,serif" font-size="14.00">updated_at :datetime</text>
<text text-anchor="start" x="139.679" y="-200.3" font-family="Times,serif" font-size="14.00">latitude :float</text>
<text text-anchor="start" x="139.679" y="-186.3" font-family="Times,serif" font-size="14.00">longitude :float</text>
</g>
<!-- Business -->
<g id="node3" class="node"><title>Business</title>
<path fill="none" stroke="black" d="M247.513,-400.5C247.513,-400.5 407.862,-400.5 407.862,-400.5 413.862,-400.5 419.862,-406.5 419.862,-412.5 419.862,-412.5 419.862,-810.5 419.862,-810.5 419.862,-816.5 413.862,-822.5 407.862,-822.5 407.862,-822.5 247.513,-822.5 247.513,-822.5 241.513,-822.5 235.513,-816.5 235.513,-810.5 235.513,-810.5 235.513,-412.5 235.513,-412.5 235.513,-406.5 241.513,-400.5 247.513,-400.5"/>
<text text-anchor="middle" x="327.688" y="-807.3" font-family="Times,serif" font-size="14.00">Business</text>
<polyline fill="none" stroke="black" points="235.513,-800.5 419.862,-800.5 "/>
<text text-anchor="start" x="243.513" y="-785.3" font-family="Times,serif" font-size="14.00">id :integer</text>
<text text-anchor="start" x="243.513" y="-771.3" font-family="Times,serif" font-size="14.00">name :string</text>
<text text-anchor="start" x="243.513" y="-757.3" font-family="Times,serif" font-size="14.00">summary :text</text>
<text text-anchor="start" x="243.513" y="-743.3" font-family="Times,serif" font-size="14.00">tagLine :string</text>
<text text-anchor="start" x="243.513" y="-729.3" font-family="Times,serif" font-size="14.00">hoursOfOpperation :string</text>
<text text-anchor="start" x="243.513" y="-715.3" font-family="Times,serif" font-size="14.00">serviceValidTil :date</text>
<text text-anchor="start" x="243.513" y="-701.3" font-family="Times,serif" font-size="14.00">domain :string</text>
<text text-anchor="start" x="243.513" y="-687.3" font-family="Times,serif" font-size="14.00">created_at :datetime</text>
<text text-anchor="start" x="243.513" y="-673.3" font-family="Times,serif" font-size="14.00">updated_at :datetime</text>
<text text-anchor="start" x="243.513" y="-659.3" font-family="Times,serif" font-size="14.00">user_id :integer</text>
<text text-anchor="start" x="243.513" y="-645.3" font-family="Times,serif" font-size="14.00">logo_file_name :string</text>
<text text-anchor="start" x="243.513" y="-631.3" font-family="Times,serif" font-size="14.00">logo_content_type :string</text>
<text text-anchor="start" x="243.513" y="-617.3" font-family="Times,serif" font-size="14.00">logo_file_size :integer</text>
<text text-anchor="start" x="243.513" y="-603.3" font-family="Times,serif" font-size="14.00">logo_updated_at :datetime</text>
<text text-anchor="start" x="243.513" y="-589.3" font-family="Times,serif" font-size="14.00">sunday_hours :time</text>
<text text-anchor="start" x="243.513" y="-575.3" font-family="Times,serif" font-size="14.00">monday_hours :time</text>
<text text-anchor="start" x="243.513" y="-561.3" font-family="Times,serif" font-size="14.00">tuesday_hours :time</text>
<text text-anchor="start" x="243.513" y="-547.3" font-family="Times,serif" font-size="14.00">wednesday_hours :time</text>
<text text-anchor="start" x="243.513" y="-533.3" font-family="Times,serif" font-size="14.00">thursday_hours :time</text>
<text text-anchor="start" x="243.513" y="-519.3" font-family="Times,serif" font-size="14.00">friday_hours :time</text>
<text text-anchor="start" x="243.513" y="-505.3" font-family="Times,serif" font-size="14.00">saturday_hours :time</text>
<text text-anchor="start" x="243.513" y="-491.3" font-family="Times,serif" font-size="14.00">sunday_hours_close :time</text>
<text text-anchor="start" x="243.513" y="-477.3" font-family="Times,serif" font-size="14.00">monday_hours_close :time</text>
<text text-anchor="start" x="243.513" y="-463.3" font-family="Times,serif" font-size="14.00">tuesday_hours_close :time</text>
<text text-anchor="start" x="243.513" y="-449.3" font-family="Times,serif" font-size="14.00">wednesday_hours_close :time</text>
<text text-anchor="start" x="243.513" y="-435.3" font-family="Times,serif" font-size="14.00">thursday_hours_close :time</text>
<text text-anchor="start" x="243.513" y="-421.3" font-family="Times,serif" font-size="14.00">friday_hours_close :time</text>
<text text-anchor="start" x="243.513" y="-407.3" font-family="Times,serif" font-size="14.00">saturday_hours_close :time</text>
</g>
<!-- Business&#45;&gt;Address -->
<g id="edge1" class="edge"><title>Business&#45;&gt;Address</title>
<path fill="none" stroke="#3fdf13" d="M255.496,-392.636C253.335,-386.113 251.208,-379.696 249.132,-373.429"/>
<ellipse fill="none" stroke="#3fdf13" cx="256.772" cy="-396.486" rx="4.00001" ry="4.00001"/>
<polygon fill="#3fdf13" stroke="#3fdf13" points="249.057,-373.203 250.183,-362.295 247.484,-368.456 245.911,-363.71 245.911,-363.71 245.911,-363.71 247.484,-368.456 241.64,-365.126 249.057,-373.203 249.057,-373.203"/>
</g>
<!-- ServiceItem -->
<g id="node4" class="node"><title>ServiceItem</title>
<path fill="none" stroke="black" d="M314.734,-0.5C314.734,-0.5 434.641,-0.5 434.641,-0.5 440.641,-0.5 446.641,-6.5 446.641,-12.5 446.641,-12.5 446.641,-130.5 446.641,-130.5 446.641,-136.5 440.641,-142.5 434.641,-142.5 434.641,-142.5 314.734,-142.5 314.734,-142.5 308.734,-142.5 302.734,-136.5 302.734,-130.5 302.734,-130.5 302.734,-12.5 302.734,-12.5 302.734,-6.5 308.734,-0.5 314.734,-0.5"/>
<text text-anchor="middle" x="374.688" y="-127.3" font-family="Times,serif" font-size="14.00">ServiceItem</text>
<polyline fill="none" stroke="black" points="302.734,-120.5 446.641,-120.5 "/>
<text text-anchor="start" x="310.734" y="-105.3" font-family="Times,serif" font-size="14.00">id :integer</text>
<text text-anchor="start" x="310.734" y="-91.3" font-family="Times,serif" font-size="14.00">title :string</text>
<text text-anchor="start" x="310.734" y="-77.3" font-family="Times,serif" font-size="14.00">summary :text</text>
<text text-anchor="start" x="310.734" y="-63.3" font-family="Times,serif" font-size="14.00">price :string</text>
<text text-anchor="start" x="310.734" y="-49.3" font-family="Times,serif" font-size="14.00">business_id :integer</text>
<text text-anchor="start" x="310.734" y="-35.3" font-family="Times,serif" font-size="14.00">created_at :datetime</text>
<text text-anchor="start" x="310.734" y="-21.3" font-family="Times,serif" font-size="14.00">updated_at :datetime</text>
<text text-anchor="start" x="310.734" y="-7.3" font-family="Times,serif" font-size="14.00">service_list_id :integer</text>
</g>
<!-- Business&#45;&gt;ServiceItem -->
<g id="edge2" class="edge"><title>Business&#45;&gt;ServiceItem</title>
<path fill="none" stroke="#c1046d" d="M328.279,-391.99C330.878,-323.504 336.245,-247.837 346.688,-179 348,-170.348 349.739,-161.385 351.708,-152.499"/>
<ellipse fill="none" stroke="#c1046d" cx="328.121" cy="-396.309" rx="4" ry="4"/>
<polygon fill="#c1046d" stroke="#c1046d" points="351.763,-152.262 358.404,-143.536 352.892,-147.391 354.02,-142.52 354.02,-142.52 354.02,-142.52 352.892,-147.391 349.637,-141.504 351.763,-152.262 351.763,-152.262"/>
</g>
<!-- ServiceList -->
<g id="node5" class="node"><title>ServiceList</title>
<path fill="none" stroke="black" d="M368.182,-207.5C368.182,-207.5 477.193,-207.5 477.193,-207.5 483.193,-207.5 489.193,-213.5 489.193,-219.5 489.193,-219.5 489.193,-323.5 489.193,-323.5 489.193,-329.5 483.193,-335.5 477.193,-335.5 477.193,-335.5 368.182,-335.5 368.182,-335.5 362.182,-335.5 356.182,-329.5 356.182,-323.5 356.182,-323.5 356.182,-219.5 356.182,-219.5 356.182,-213.5 362.182,-207.5 368.182,-207.5"/>
<text text-anchor="middle" x="422.688" y="-320.3" font-family="Times,serif" font-size="14.00">ServiceList</text>
<polyline fill="none" stroke="black" points="356.182,-313.5 489.193,-313.5 "/>
<text text-anchor="start" x="364.182" y="-298.3" font-family="Times,serif" font-size="14.00">id :integer</text>
<text text-anchor="start" x="364.182" y="-284.3" font-family="Times,serif" font-size="14.00">title :string</text>
<text text-anchor="start" x="364.182" y="-270.3" font-family="Times,serif" font-size="14.00">rank :integer</text>
<text text-anchor="start" x="364.182" y="-256.3" font-family="Times,serif" font-size="14.00">comment :text</text>
<text text-anchor="start" x="364.182" y="-242.3" font-family="Times,serif" font-size="14.00">created_at :datetime</text>
<text text-anchor="start" x="364.182" y="-228.3" font-family="Times,serif" font-size="14.00">updated_at :datetime</text>
<text text-anchor="start" x="364.182" y="-214.3" font-family="Times,serif" font-size="14.00">business_id :integer</text>
</g>
<!-- Business&#45;&gt;ServiceList -->
<g id="edge3" class="edge"><title>Business&#45;&gt;ServiceList</title>
<path fill="none" stroke="#aa325e" d="M388.978,-392.436C393.625,-375.901 398.08,-360.053 402.141,-345.602"/>
<ellipse fill="none" stroke="#aa325e" cx="387.855" cy="-396.433" rx="4.00001" ry="4.00001"/>
<polygon fill="#aa325e" stroke="#aa325e" points="402.182,-345.457 409.22,-337.048 403.535,-340.644 404.888,-335.83 404.888,-335.83 404.888,-335.83 403.535,-340.644 400.556,-334.613 402.182,-345.457 402.182,-345.457"/>
</g>
<!-- ServiceList&#45;&gt;ServiceItem -->
<g id="edge4" class="edge"><title>ServiceList&#45;&gt;ServiceItem</title>
<path fill="none" stroke="#f49ff5" d="M405.471,-199.479C401.794,-184.314 397.886,-168.194 394.133,-152.711"/>
<ellipse fill="none" stroke="#f49ff5" cx="406.426" cy="-203.42" rx="4.00001" ry="4.00001"/>
<polygon fill="#f49ff5" stroke="#f49ff5" points="394.049,-152.363 396.066,-141.585 392.871,-147.504 391.693,-142.645 391.693,-142.645 391.693,-142.645 392.871,-147.504 387.319,-143.705 394.049,-152.363 394.049,-152.363"/>
</g>
<!-- User -->
<g id="node6" class="node"><title>User</title>
<path fill="none" stroke="black" d="M237.41,-859.5C237.41,-859.5 417.966,-859.5 417.966,-859.5 423.966,-859.5 429.966,-865.5 429.966,-871.5 429.966,-871.5 429.966,-1115.5 429.966,-1115.5 429.966,-1121.5 423.966,-1127.5 417.966,-1127.5 417.966,-1127.5 237.41,-1127.5 237.41,-1127.5 231.41,-1127.5 225.41,-1121.5 225.41,-1115.5 225.41,-1115.5 225.41,-871.5 225.41,-871.5 225.41,-865.5 231.41,-859.5 237.41,-859.5"/>
<text text-anchor="middle" x="327.688" y="-1112.3" font-family="Times,serif" font-size="14.00">User</text>
<polyline fill="none" stroke="black" points="225.41,-1105.5 429.966,-1105.5 "/>
<text text-anchor="start" x="233.41" y="-1090.3" font-family="Times,serif" font-size="14.00">id :integer</text>
<text text-anchor="start" x="233.41" y="-1076.3" font-family="Times,serif" font-size="14.00">email :string</text>
<text text-anchor="start" x="233.41" y="-1062.3" font-family="Times,serif" font-size="14.00">encrypted_password :string</text>
<text text-anchor="start" x="233.41" y="-1048.3" font-family="Times,serif" font-size="14.00">reset_password_token :string</text>
<text text-anchor="start" x="233.41" y="-1034.3" font-family="Times,serif" font-size="14.00">reset_password_sent_at :datetime</text>
<text text-anchor="start" x="233.41" y="-1020.3" font-family="Times,serif" font-size="14.00">remember_created_at :datetime</text>
<text text-anchor="start" x="233.41" y="-1006.3" font-family="Times,serif" font-size="14.00">sign_in_count :integer</text>
<text text-anchor="start" x="233.41" y="-992.3" font-family="Times,serif" font-size="14.00">current_sign_in_at :datetime</text>
<text text-anchor="start" x="233.41" y="-978.3" font-family="Times,serif" font-size="14.00">last_sign_in_at :datetime</text>
<text text-anchor="start" x="233.41" y="-964.3" font-family="Times,serif" font-size="14.00">current_sign_in_ip :string</text>
<text text-anchor="start" x="233.41" y="-950.3" font-family="Times,serif" font-size="14.00">last_sign_in_ip :string</text>
<text text-anchor="start" x="233.41" y="-936.3" font-family="Times,serif" font-size="14.00">created_at :datetime</text>
<text text-anchor="start" x="233.41" y="-922.3" font-family="Times,serif" font-size="14.00">updated_at :datetime</text>
<text text-anchor="start" x="233.41" y="-908.3" font-family="Times,serif" font-size="14.00">confirmation_token :string</text>
<text text-anchor="start" x="233.41" y="-894.3" font-family="Times,serif" font-size="14.00">confirmed_at :datetime</text>
<text text-anchor="start" x="233.41" y="-880.3" font-family="Times,serif" font-size="14.00">confirmation_sent_at :datetime</text>
<text text-anchor="start" x="233.41" y="-866.3" font-family="Times,serif" font-size="14.00">unconfirmed_email :string</text>
</g>
<!-- User&#45;&gt;Business -->
<g id="edge5" class="edge"><title>User&#45;&gt;Business</title>
<path fill="none" stroke="#7ee1a8" d="M327.688,-851.136C327.688,-844.398 327.688,-837.573 327.688,-830.698"/>
<ellipse fill="none" stroke="#7ee1a8" cx="327.688" cy="-855.328" rx="4" ry="4"/>
<ellipse fill="#7ee1a8" stroke="#7ee1a8" cx="327.688" cy="-826.606" rx="4" ry="4"/>
</g>
</g>
</svg>
