<?xml version="1.0" encoding="UTF-8" standalone="no"?>
<!DOCTYPE svg PUBLIC "-//W3C//DTD SVG 1.1//EN"
 "http://www.w3.org/Graphics/SVG/1.1/DTD/svg11.dtd">
<!-- Generated by graphviz version 2.38.0 (20140413.2041)
 -->
<!-- Title: models_diagram Pages: 1 -->
<svg width="438pt" height="705pt"
 viewBox="0.00 0.00 437.97 705.00" xmlns="http://www.w3.org/2000/svg" xmlns:xlink="http://www.w3.org/1999/xlink">
<g id="graph0" class="graph" transform="scale(1 1) rotate(0) translate(4 701)">
<title>models_diagram</title>
<polygon fill="white" stroke="none" points="-4,4 -4,-701 433.966,-701 433.966,4 -4,4"/>
<!-- _diagram_info -->
<g id="node1" class="node"><title>_diagram_info</title>
<text text-anchor="start" x="8" y="-584.6" font-family="Times,serif" font-size="13.00">Models diagram</text>
<text text-anchor="start" x="8" y="-571.6" font-family="Times,serif" font-size="13.00">Date: Mar 10 2015 &#45; 15:17</text>
<text text-anchor="start" x="8" y="-558.6" font-family="Times,serif" font-size="13.00">Migration version: 20150310010223</text>
<text text-anchor="start" x="8" y="-545.6" font-family="Times,serif" font-size="13.00">Generated by RailRoady 1.3.0</text>
<text text-anchor="start" x="8" y="-532.6" font-family="Times,serif" font-size="13.00">http://railroady.prestonlee.com</text>
</g>
<!-- Address -->
<g id="node2" class="node"><title>Address</title>
<path fill="none" stroke="black" d="M259.679,-0.5C259.679,-0.5 403.697,-0.5 403.697,-0.5 409.697,-0.5 415.697,-6.5 415.697,-12.5 415.697,-12.5 415.697,-172.5 415.697,-172.5 415.697,-178.5 409.697,-184.5 403.697,-184.5 403.697,-184.5 259.679,-184.5 259.679,-184.5 253.679,-184.5 247.679,-178.5 247.679,-172.5 247.679,-172.5 247.679,-12.5 247.679,-12.5 247.679,-6.5 253.679,-0.5 259.679,-0.5"/>
<text text-anchor="middle" x="331.688" y="-169.3" font-family="Times,serif" font-size="14.00">Address</text>
<polyline fill="none" stroke="black" points="247.679,-162.5 415.697,-162.5 "/>
<text text-anchor="start" x="255.679" y="-147.3" font-family="Times,serif" font-size="14.00">id :integer</text>
<text text-anchor="start" x="255.679" y="-133.3" font-family="Times,serif" font-size="14.00">street :string</text>
<text text-anchor="start" x="255.679" y="-119.3" font-family="Times,serif" font-size="14.00">city :string</text>
<text text-anchor="start" x="255.679" y="-105.3" font-family="Times,serif" font-size="14.00">geographicalRegion :string</text>
<text text-anchor="start" x="255.679" y="-91.3" font-family="Times,serif" font-size="14.00">country :string</text>
<text text-anchor="start" x="255.679" y="-77.3" font-family="Times,serif" font-size="14.00">postal_code :string</text>
<text text-anchor="start" x="255.679" y="-63.3" font-family="Times,serif" font-size="14.00">business_id :integer</text>
<text text-anchor="start" x="255.679" y="-49.3" font-family="Times,serif" font-size="14.00">created_at :datetime</text>
<text text-anchor="start" x="255.679" y="-35.3" font-family="Times,serif" font-size="14.00">updated_at :datetime</text>
<text text-anchor="start" x="255.679" y="-21.3" font-family="Times,serif" font-size="14.00">latitude :float</text>
<text text-anchor="start" x="255.679" y="-7.3" font-family="Times,serif" font-size="14.00">longitude :float</text>
</g>
<!-- Business -->
<g id="node3" class="node"><title>Business</title>
<path fill="none" stroke="black" d="M257.617,-221.5C257.617,-221.5 397.759,-221.5 397.759,-221.5 403.759,-221.5 409.759,-227.5 409.759,-233.5 409.759,-233.5 409.759,-379.5 409.759,-379.5 409.759,-385.5 403.759,-391.5 397.759,-391.5 397.759,-391.5 257.617,-391.5 257.617,-391.5 251.617,-391.5 245.617,-385.5 245.617,-379.5 245.617,-379.5 245.617,-233.5 245.617,-233.5 245.617,-227.5 251.617,-221.5 257.617,-221.5"/>
<text text-anchor="middle" x="327.688" y="-376.3" font-family="Times,serif" font-size="14.00">Business</text>
<polyline fill="none" stroke="black" points="245.617,-369.5 409.759,-369.5 "/>
<text text-anchor="start" x="253.617" y="-354.3" font-family="Times,serif" font-size="14.00">id :integer</text>
<text text-anchor="start" x="253.617" y="-340.3" font-family="Times,serif" font-size="14.00">name :string</text>
<text text-anchor="start" x="253.617" y="-326.3" font-family="Times,serif" font-size="14.00">summary :text</text>
<text text-anchor="start" x="253.617" y="-312.3" font-family="Times,serif" font-size="14.00">tagLine :string</text>
<text text-anchor="start" x="253.617" y="-298.3" font-family="Times,serif" font-size="14.00">hoursOfOpperation :string</text>
<text text-anchor="start" x="253.617" y="-284.3" font-family="Times,serif" font-size="14.00">serviceValidTil :date</text>
<text text-anchor="start" x="253.617" y="-270.3" font-family="Times,serif" font-size="14.00">domain :string</text>
<text text-anchor="start" x="253.617" y="-256.3" font-family="Times,serif" font-size="14.00">created_at :datetime</text>
<text text-anchor="start" x="253.617" y="-242.3" font-family="Times,serif" font-size="14.00">updated_at :datetime</text>
<text text-anchor="start" x="253.617" y="-228.3" font-family="Times,serif" font-size="14.00">user_id :integer</text>
</g>
<!-- Business&#45;&gt;Address -->
<g id="edge1" class="edge"><title>Business&#45;&gt;Address</title>
<path fill="none" stroke="#e2256b" d="M329.43,-213.183C329.543,-207.154 329.658,-201.065 329.773,-194.996"/>
<ellipse fill="none" stroke="#e2256b" cx="329.35" cy="-217.408" rx="4" ry="4"/>
<polygon fill="#e2256b" stroke="#e2256b" points="329.776,-194.814 334.464,-184.9 329.87,-189.815 329.965,-184.815 329.965,-184.815 329.965,-184.815 329.87,-189.815 325.466,-184.73 329.776,-194.814 329.776,-194.814"/>
</g>
<!-- ServiceItem -->
<g id="node4" class="node"><title>ServiceItem</title>
<path fill="none" stroke="black" d="M97.7341,-21.5C97.7341,-21.5 217.641,-21.5 217.641,-21.5 223.641,-21.5 229.641,-27.5 229.641,-33.5 229.641,-33.5 229.641,-151.5 229.641,-151.5 229.641,-157.5 223.641,-163.5 217.641,-163.5 217.641,-163.5 97.7341,-163.5 97.7341,-163.5 91.7341,-163.5 85.7341,-157.5 85.7341,-151.5 85.7341,-151.5 85.7341,-33.5 85.7341,-33.5 85.7341,-27.5 91.7341,-21.5 97.7341,-21.5"/>
<text text-anchor="middle" x="157.688" y="-148.3" font-family="Times,serif" font-size="14.00">ServiceItem</text>
<polyline fill="none" stroke="black" points="85.7341,-141.5 229.641,-141.5 "/>
<text text-anchor="start" x="93.7341" y="-126.3" font-family="Times,serif" font-size="14.00">id :integer</text>
<text text-anchor="start" x="93.7341" y="-112.3" font-family="Times,serif" font-size="14.00">title :string</text>
<text text-anchor="start" x="93.7341" y="-98.3" font-family="Times,serif" font-size="14.00">summary :text</text>
<text text-anchor="start" x="93.7341" y="-84.3" font-family="Times,serif" font-size="14.00">price :string</text>
<text text-anchor="start" x="93.7341" y="-70.3" font-family="Times,serif" font-size="14.00">business_id :integer</text>
<text text-anchor="start" x="93.7341" y="-56.3" font-family="Times,serif" font-size="14.00">created_at :datetime</text>
<text text-anchor="start" x="93.7341" y="-42.3" font-family="Times,serif" font-size="14.00">updated_at :datetime</text>
<text text-anchor="start" x="93.7341" y="-28.3" font-family="Times,serif" font-size="14.00">service_list_id :integer</text>
</g>
<!-- Business&#45;&gt;ServiceItem -->
<g id="edge2" class="edge"><title>Business&#45;&gt;ServiceItem</title>
<path fill="none" stroke="#3117df" d="M255.21,-215.117C243.712,-200.778 231.901,-186.049 220.645,-172.011"/>
<ellipse fill="none" stroke="#3117df" cx="257.753" cy="-218.287" rx="4.00002" ry="4.00002"/>
<polygon fill="#3117df" stroke="#3117df" points="220.343,-171.635 217.598,-161.018 217.215,-167.734 214.087,-163.834 214.087,-163.834 214.087,-163.834 217.215,-167.734 210.577,-166.649 220.343,-171.635 220.343,-171.635"/>
</g>
<!-- ServiceList -->
<g id="node5" class="node"><title>ServiceList</title>
<path fill="none" stroke="black" d="M103.182,-249.5C103.182,-249.5 212.193,-249.5 212.193,-249.5 218.193,-249.5 224.193,-255.5 224.193,-261.5 224.193,-261.5 224.193,-351.5 224.193,-351.5 224.193,-357.5 218.193,-363.5 212.193,-363.5 212.193,-363.5 103.182,-363.5 103.182,-363.5 97.1824,-363.5 91.1824,-357.5 91.1824,-351.5 91.1824,-351.5 91.1824,-261.5 91.1824,-261.5 91.1824,-255.5 97.1824,-249.5 103.182,-249.5"/>
<text text-anchor="middle" x="157.688" y="-348.3" font-family="Times,serif" font-size="14.00">ServiceList</text>
<polyline fill="none" stroke="black" points="91.1824,-341.5 224.193,-341.5 "/>
<text text-anchor="start" x="99.1824" y="-326.3" font-family="Times,serif" font-size="14.00">id :integer</text>
<text text-anchor="start" x="99.1824" y="-312.3" font-family="Times,serif" font-size="14.00">title :string</text>
<text text-anchor="start" x="99.1824" y="-298.3" font-family="Times,serif" font-size="14.00">rank :integer</text>
<text text-anchor="start" x="99.1824" y="-284.3" font-family="Times,serif" font-size="14.00">comment :text</text>
<text text-anchor="start" x="99.1824" y="-270.3" font-family="Times,serif" font-size="14.00">created_at :datetime</text>
<text text-anchor="start" x="99.1824" y="-256.3" font-family="Times,serif" font-size="14.00">updated_at :datetime</text>
</g>
<!-- ServiceList&#45;&gt;ServiceItem -->
<g id="edge3" class="edge"><title>ServiceList&#45;&gt;ServiceItem</title>
<path fill="none" stroke="#a48e99" d="M157.688,-241.093C157.688,-219.879 157.688,-196.025 157.688,-173.779"/>
<ellipse fill="none" stroke="#a48e99" cx="157.688" cy="-245.244" rx="4" ry="4"/>
<polygon fill="#a48e99" stroke="#a48e99" points="157.688,-173.686 162.188,-163.686 157.688,-168.686 157.688,-163.686 157.688,-163.686 157.688,-163.686 157.688,-168.686 153.188,-163.686 157.688,-173.686 157.688,-173.686"/>
</g>
<!-- User -->
<g id="node6" class="node"><title>User</title>
<path fill="none" stroke="black" d="M237.41,-428.5C237.41,-428.5 417.966,-428.5 417.966,-428.5 423.966,-428.5 429.966,-434.5 429.966,-440.5 429.966,-440.5 429.966,-684.5 429.966,-684.5 429.966,-690.5 423.966,-696.5 417.966,-696.5 417.966,-696.5 237.41,-696.5 237.41,-696.5 231.41,-696.5 225.41,-690.5 225.41,-684.5 225.41,-684.5 225.41,-440.5 225.41,-440.5 225.41,-434.5 231.41,-428.5 237.41,-428.5"/>
<text text-anchor="middle" x="327.688" y="-681.3" font-family="Times,serif" font-size="14.00">User</text>
<polyline fill="none" stroke="black" points="225.41,-674.5 429.966,-674.5 "/>
<text text-anchor="start" x="233.41" y="-659.3" font-family="Times,serif" font-size="14.00">id :integer</text>
<text text-anchor="start" x="233.41" y="-645.3" font-family="Times,serif" font-size="14.00">email :string</text>
<text text-anchor="start" x="233.41" y="-631.3" font-family="Times,serif" font-size="14.00">encrypted_password :string</text>
<text text-anchor="start" x="233.41" y="-617.3" font-family="Times,serif" font-size="14.00">reset_password_token :string</text>
<text text-anchor="start" x="233.41" y="-603.3" font-family="Times,serif" font-size="14.00">reset_password_sent_at :datetime</text>
<text text-anchor="start" x="233.41" y="-589.3" font-family="Times,serif" font-size="14.00">remember_created_at :datetime</text>
<text text-anchor="start" x="233.41" y="-575.3" font-family="Times,serif" font-size="14.00">sign_in_count :integer</text>
<text text-anchor="start" x="233.41" y="-561.3" font-family="Times,serif" font-size="14.00">current_sign_in_at :datetime</text>
<text text-anchor="start" x="233.41" y="-547.3" font-family="Times,serif" font-size="14.00">last_sign_in_at :datetime</text>
<text text-anchor="start" x="233.41" y="-533.3" font-family="Times,serif" font-size="14.00">current_sign_in_ip :string</text>
<text text-anchor="start" x="233.41" y="-519.3" font-family="Times,serif" font-size="14.00">last_sign_in_ip :string</text>
<text text-anchor="start" x="233.41" y="-505.3" font-family="Times,serif" font-size="14.00">created_at :datetime</text>
<text text-anchor="start" x="233.41" y="-491.3" font-family="Times,serif" font-size="14.00">updated_at :datetime</text>
<text text-anchor="start" x="233.41" y="-477.3" font-family="Times,serif" font-size="14.00">confirmation_token :string</text>
<text text-anchor="start" x="233.41" y="-463.3" font-family="Times,serif" font-size="14.00">confirmed_at :datetime</text>
<text text-anchor="start" x="233.41" y="-449.3" font-family="Times,serif" font-size="14.00">confirmation_sent_at :datetime</text>
<text text-anchor="start" x="233.41" y="-435.3" font-family="Times,serif" font-size="14.00">unconfirmed_email :string</text>
</g>
<!-- User&#45;&gt;Business -->
<g id="edge4" class="edge"><title>User&#45;&gt;Business</title>
<path fill="none" stroke="#db7670" d="M327.688,-420.019C327.688,-413.209 327.688,-406.455 327.688,-399.837"/>
<ellipse fill="none" stroke="#db7670" cx="327.688" cy="-424.177" rx="4" ry="4"/>
<ellipse fill="#db7670" stroke="#db7670" cx="327.688" cy="-395.533" rx="4" ry="4"/>
</g>
</g>
</svg>
