<?xml version="1.0" encoding="UTF-8" standalone="no"?>
<!DOCTYPE svg PUBLIC "-//W3C//DTD SVG 1.1//EN"
 "http://www.w3.org/Graphics/SVG/1.1/DTD/svg11.dtd">
<!-- Generated by graphviz version 2.38.0 (20140413.2041)
 -->
<!-- Title: models_diagram Pages: 1 -->
<svg width="497pt" height="1346pt"
 viewBox="0.00 0.00 497.19 1346.00" xmlns="http://www.w3.org/2000/svg" xmlns:xlink="http://www.w3.org/1999/xlink">
<g id="graph0" class="graph" transform="scale(1 1) rotate(0) translate(4 1342)">
<title>models_diagram</title>
<polygon fill="white" stroke="none" points="-4,4 -4,-1342 493.193,-1342 493.193,4 -4,4"/>
<!-- _diagram_info -->
<g id="node1" class="node"><title>_diagram_info</title>
<text text-anchor="start" x="8" y="-1225.6" font-family="Times,serif" font-size="13.00">Models diagram</text>
<text text-anchor="start" x="8" y="-1212.6" font-family="Times,serif" font-size="13.00">Date: May 06 2015 &#45; 16:20</text>
<text text-anchor="start" x="8" y="-1199.6" font-family="Times,serif" font-size="13.00">Migration version: 20150415215204</text>
<text text-anchor="start" x="8" y="-1186.6" font-family="Times,serif" font-size="13.00">Generated by RailRoady 1.3.0</text>
<text text-anchor="start" x="8" y="-1173.6" font-family="Times,serif" font-size="13.00">http://railroady.prestonlee.com</text>
</g>
<!-- Business -->
<g id="node2" class="node"><title>Business</title>
<path fill="none" stroke="black" d="M257.238,-778.5C257.238,-778.5 398.138,-778.5 398.138,-778.5 404.138,-778.5 410.138,-784.5 410.138,-790.5 410.138,-790.5 410.138,-1020.5 410.138,-1020.5 410.138,-1026.5 404.138,-1032.5 398.138,-1032.5 398.138,-1032.5 257.238,-1032.5 257.238,-1032.5 251.238,-1032.5 245.238,-1026.5 245.238,-1020.5 245.238,-1020.5 245.238,-790.5 245.238,-790.5 245.238,-784.5 251.238,-778.5 257.238,-778.5"/>
<text text-anchor="middle" x="327.688" y="-1017.3" font-family="Times,serif" font-size="14.00">Business</text>
<polyline fill="none" stroke="black" points="245.238,-1010.5 410.138,-1010.5 "/>
<text text-anchor="start" x="253.238" y="-995.3" font-family="Times,serif" font-size="14.00">id :integer</text>
<text text-anchor="start" x="253.238" y="-981.3" font-family="Times,serif" font-size="14.00">name :string</text>
<text text-anchor="start" x="253.238" y="-967.3" font-family="Times,serif" font-size="14.00">summary :text</text>
<text text-anchor="start" x="253.238" y="-953.3" font-family="Times,serif" font-size="14.00">tagLine :string</text>
<text text-anchor="start" x="253.238" y="-939.3" font-family="Times,serif" font-size="14.00">hoursOfOpperation :string</text>
<text text-anchor="start" x="253.238" y="-925.3" font-family="Times,serif" font-size="14.00">serviceValidTil :date</text>
<text text-anchor="start" x="253.238" y="-911.3" font-family="Times,serif" font-size="14.00">domain :string</text>
<text text-anchor="start" x="253.238" y="-897.3" font-family="Times,serif" font-size="14.00">created_at :datetime</text>
<text text-anchor="start" x="253.238" y="-883.3" font-family="Times,serif" font-size="14.00">updated_at :datetime</text>
<text text-anchor="start" x="253.238" y="-869.3" font-family="Times,serif" font-size="14.00">user_id :integer</text>
<text text-anchor="start" x="253.238" y="-855.3" font-family="Times,serif" font-size="14.00">logo_file_name :string</text>
<text text-anchor="start" x="253.238" y="-841.3" font-family="Times,serif" font-size="14.00">logo_content_type :string</text>
<text text-anchor="start" x="253.238" y="-827.3" font-family="Times,serif" font-size="14.00">logo_file_size :integer</text>
<text text-anchor="start" x="253.238" y="-813.3" font-family="Times,serif" font-size="14.00">logo_updated_at :datetime</text>
<text text-anchor="start" x="253.238" y="-799.3" font-family="Times,serif" font-size="14.00">service_list_name :string</text>
<text text-anchor="start" x="253.238" y="-785.3" font-family="Times,serif" font-size="14.00">template :string</text>
</g>
<!-- Location -->
<g id="node3" class="node"><title>Location</title>
<path fill="none" stroke="black" d="M127.513,-235.5C127.513,-235.5 287.862,-235.5 287.862,-235.5 293.862,-235.5 299.862,-241.5 299.862,-247.5 299.862,-247.5 299.862,-729.5 299.862,-729.5 299.862,-735.5 293.862,-741.5 287.862,-741.5 287.862,-741.5 127.513,-741.5 127.513,-741.5 121.513,-741.5 115.513,-735.5 115.513,-729.5 115.513,-729.5 115.513,-247.5 115.513,-247.5 115.513,-241.5 121.513,-235.5 127.513,-235.5"/>
<text text-anchor="middle" x="207.688" y="-726.3" font-family="Times,serif" font-size="14.00">Location</text>
<polyline fill="none" stroke="black" points="115.513,-719.5 299.862,-719.5 "/>
<text text-anchor="start" x="123.513" y="-704.3" font-family="Times,serif" font-size="14.00">id :integer</text>
<text text-anchor="start" x="123.513" y="-690.3" font-family="Times,serif" font-size="14.00">street :string</text>
<text text-anchor="start" x="123.513" y="-676.3" font-family="Times,serif" font-size="14.00">city :string</text>
<text text-anchor="start" x="123.513" y="-662.3" font-family="Times,serif" font-size="14.00">geographicalRegion :string</text>
<text text-anchor="start" x="123.513" y="-648.3" font-family="Times,serif" font-size="14.00">country :string</text>
<text text-anchor="start" x="123.513" y="-634.3" font-family="Times,serif" font-size="14.00">postal_code :string</text>
<text text-anchor="start" x="123.513" y="-620.3" font-family="Times,serif" font-size="14.00">business_id :integer</text>
<text text-anchor="start" x="123.513" y="-606.3" font-family="Times,serif" font-size="14.00">created_at :datetime</text>
<text text-anchor="start" x="123.513" y="-592.3" font-family="Times,serif" font-size="14.00">updated_at :datetime</text>
<text text-anchor="start" x="123.513" y="-578.3" font-family="Times,serif" font-size="14.00">latitude :float</text>
<text text-anchor="start" x="123.513" y="-564.3" font-family="Times,serif" font-size="14.00">longitude :float</text>
<text text-anchor="start" x="123.513" y="-550.3" font-family="Times,serif" font-size="14.00">sunday_hours_close :time</text>
<text text-anchor="start" x="123.513" y="-536.3" font-family="Times,serif" font-size="14.00">monday_hours_close :time</text>
<text text-anchor="start" x="123.513" y="-522.3" font-family="Times,serif" font-size="14.00">tuesday_hours_close :time</text>
<text text-anchor="start" x="123.513" y="-508.3" font-family="Times,serif" font-size="14.00">wednesday_hours_close :time</text>
<text text-anchor="start" x="123.513" y="-494.3" font-family="Times,serif" font-size="14.00">thursday_hours_close :time</text>
<text text-anchor="start" x="123.513" y="-480.3" font-family="Times,serif" font-size="14.00">friday_hours_close :time</text>
<text text-anchor="start" x="123.513" y="-466.3" font-family="Times,serif" font-size="14.00">saturday_hours_close :time</text>
<text text-anchor="start" x="123.513" y="-452.3" font-family="Times,serif" font-size="14.00">sunday_hours_open :time</text>
<text text-anchor="start" x="123.513" y="-438.3" font-family="Times,serif" font-size="14.00">monday_hours_open :time</text>
<text text-anchor="start" x="123.513" y="-424.3" font-family="Times,serif" font-size="14.00">tuesday_hours_open :time</text>
<text text-anchor="start" x="123.513" y="-410.3" font-family="Times,serif" font-size="14.00">wednesday_hours_open :time</text>
<text text-anchor="start" x="123.513" y="-396.3" font-family="Times,serif" font-size="14.00">thursday_hours_open :time</text>
<text text-anchor="start" x="123.513" y="-382.3" font-family="Times,serif" font-size="14.00">friday_hours_open :time</text>
<text text-anchor="start" x="123.513" y="-368.3" font-family="Times,serif" font-size="14.00">saturday_hours_open :time</text>
<text text-anchor="start" x="123.513" y="-354.3" font-family="Times,serif" font-size="14.00">sunday_is_open :boolean</text>
<text text-anchor="start" x="123.513" y="-340.3" font-family="Times,serif" font-size="14.00">monday_is_open :boolean</text>
<text text-anchor="start" x="123.513" y="-326.3" font-family="Times,serif" font-size="14.00">tuesday_is_open :boolean</text>
<text text-anchor="start" x="123.513" y="-312.3" font-family="Times,serif" font-size="14.00">wednesday_is_open :boolean</text>
<text text-anchor="start" x="123.513" y="-298.3" font-family="Times,serif" font-size="14.00">thursday_is_open :boolean</text>
<text text-anchor="start" x="123.513" y="-284.3" font-family="Times,serif" font-size="14.00">friday_is_open :boolean</text>
<text text-anchor="start" x="123.513" y="-270.3" font-family="Times,serif" font-size="14.00">saturday_is_open :boolean</text>
<text text-anchor="start" x="123.513" y="-256.3" font-family="Times,serif" font-size="14.00">name :string</text>
<text text-anchor="start" x="123.513" y="-242.3" font-family="Times,serif" font-size="14.00">phone_number :string</text>
</g>
<!-- Business&#45;&gt;Location -->
<g id="edge1" class="edge"><title>Business&#45;&gt;Location</title>
<path fill="none" stroke="#f080e9" d="M288.938,-770.492C287.163,-764.351 285.359,-758.112 283.533,-751.799"/>
<ellipse fill="none" stroke="#f080e9" cx="290.084" cy="-774.453" rx="4.00001" ry="4.00001"/>
<polygon fill="#f080e9" stroke="#f080e9" points="283.427,-751.43 284.972,-740.574 282.038,-746.627 280.649,-741.824 280.649,-741.824 280.649,-741.824 282.038,-746.627 276.326,-743.074 283.427,-751.43 283.427,-751.43"/>
</g>
<!-- ServiceItem -->
<g id="node4" class="node"><title>ServiceItem</title>
<path fill="none" stroke="black" d="M299.579,-0.5C299.579,-0.5 449.797,-0.5 449.797,-0.5 455.797,-0.5 461.797,-6.5 461.797,-12.5 461.797,-12.5 461.797,-186.5 461.797,-186.5 461.797,-192.5 455.797,-198.5 449.797,-198.5 449.797,-198.5 299.579,-198.5 299.579,-198.5 293.579,-198.5 287.579,-192.5 287.579,-186.5 287.579,-186.5 287.579,-12.5 287.579,-12.5 287.579,-6.5 293.579,-0.5 299.579,-0.5"/>
<text text-anchor="middle" x="374.688" y="-183.3" font-family="Times,serif" font-size="14.00">ServiceItem</text>
<polyline fill="none" stroke="black" points="287.579,-176.5 461.797,-176.5 "/>
<text text-anchor="start" x="295.579" y="-161.3" font-family="Times,serif" font-size="14.00">id :integer</text>
<text text-anchor="start" x="295.579" y="-147.3" font-family="Times,serif" font-size="14.00">title :string</text>
<text text-anchor="start" x="295.579" y="-133.3" font-family="Times,serif" font-size="14.00">summary :text</text>
<text text-anchor="start" x="295.579" y="-119.3" font-family="Times,serif" font-size="14.00">price :string</text>
<text text-anchor="start" x="295.579" y="-105.3" font-family="Times,serif" font-size="14.00">business_id :integer</text>
<text text-anchor="start" x="295.579" y="-91.3" font-family="Times,serif" font-size="14.00">created_at :datetime</text>
<text text-anchor="start" x="295.579" y="-77.3" font-family="Times,serif" font-size="14.00">updated_at :datetime</text>
<text text-anchor="start" x="295.579" y="-63.3" font-family="Times,serif" font-size="14.00">service_list_id :integer</text>
<text text-anchor="start" x="295.579" y="-49.3" font-family="Times,serif" font-size="14.00">image_file_name :string</text>
<text text-anchor="start" x="295.579" y="-35.3" font-family="Times,serif" font-size="14.00">image_content_type :string</text>
<text text-anchor="start" x="295.579" y="-21.3" font-family="Times,serif" font-size="14.00">image_file_size :integer</text>
<text text-anchor="start" x="295.579" y="-7.3" font-family="Times,serif" font-size="14.00">image_updated_at :datetime</text>
</g>
<!-- Business&#45;&gt;ServiceItem -->
<g id="edge2" class="edge"><title>Business&#45;&gt;ServiceItem</title>
<path fill="none" stroke="#809cc2" d="M324.55,-770.465C323.005,-634.944 325.013,-419.709 346.688,-235 347.698,-226.394 348.985,-217.523 350.45,-208.633"/>
<ellipse fill="none" stroke="#809cc2" cx="324.599" cy="-774.468" rx="4" ry="4"/>
<polygon fill="#809cc2" stroke="#809cc2" points="350.48,-208.459 356.61,-199.366 351.327,-203.531 352.175,-198.603 352.175,-198.603 352.175,-198.603 351.327,-203.531 347.74,-197.841 350.48,-208.459 350.48,-208.459"/>
</g>
<!-- ServiceList -->
<g id="node5" class="node"><title>ServiceList</title>
<path fill="none" stroke="black" d="M368.182,-424.5C368.182,-424.5 477.193,-424.5 477.193,-424.5 483.193,-424.5 489.193,-430.5 489.193,-436.5 489.193,-436.5 489.193,-540.5 489.193,-540.5 489.193,-546.5 483.193,-552.5 477.193,-552.5 477.193,-552.5 368.182,-552.5 368.182,-552.5 362.182,-552.5 356.182,-546.5 356.182,-540.5 356.182,-540.5 356.182,-436.5 356.182,-436.5 356.182,-430.5 362.182,-424.5 368.182,-424.5"/>
<text text-anchor="middle" x="422.688" y="-537.3" font-family="Times,serif" font-size="14.00">ServiceList</text>
<polyline fill="none" stroke="black" points="356.182,-530.5 489.193,-530.5 "/>
<text text-anchor="start" x="364.182" y="-515.3" font-family="Times,serif" font-size="14.00">id :integer</text>
<text text-anchor="start" x="364.182" y="-501.3" font-family="Times,serif" font-size="14.00">title :string</text>
<text text-anchor="start" x="364.182" y="-487.3" font-family="Times,serif" font-size="14.00">rank :integer</text>
<text text-anchor="start" x="364.182" y="-473.3" font-family="Times,serif" font-size="14.00">comment :text</text>
<text text-anchor="start" x="364.182" y="-459.3" font-family="Times,serif" font-size="14.00">created_at :datetime</text>
<text text-anchor="start" x="364.182" y="-445.3" font-family="Times,serif" font-size="14.00">updated_at :datetime</text>
<text text-anchor="start" x="364.182" y="-431.3" font-family="Times,serif" font-size="14.00">business_id :integer</text>
</g>
<!-- Business&#45;&gt;ServiceList -->
<g id="edge3" class="edge"><title>Business&#45;&gt;ServiceList</title>
<path fill="none" stroke="#f06134" d="M358.394,-770.364C374.177,-701.414 392.8,-620.06 405.93,-562.705"/>
<ellipse fill="none" stroke="#f06134" cx="357.47" cy="-774.397" rx="4.00001" ry="4.00001"/>
<polygon fill="#f06134" stroke="#f06134" points="406.002,-562.389 412.62,-553.646 407.118,-557.515 408.234,-552.642 408.234,-552.642 408.234,-552.642 407.118,-557.515 403.847,-551.637 406.002,-562.389 406.002,-562.389"/>
</g>
<!-- ServiceList&#45;&gt;ServiceItem -->
<g id="edge4" class="edge"><title>ServiceList&#45;&gt;ServiceItem</title>
<path fill="none" stroke="#ef1fe0" d="M413.869,-416.402C406.661,-358.286 396.353,-275.178 388.119,-208.791"/>
<ellipse fill="none" stroke="#ef1fe0" cx="414.376" cy="-420.491" rx="4.00001" ry="4.00001"/>
<polygon fill="#ef1fe0" stroke="#ef1fe0" points="388.099,-208.629 391.334,-198.151 387.484,-203.667 386.868,-198.705 386.868,-198.705 386.868,-198.705 387.484,-203.667 382.402,-199.259 388.099,-208.629 388.099,-208.629"/>
</g>
<!-- User -->
<g id="node6" class="node"><title>User</title>
<path fill="none" stroke="black" d="M237.41,-1069.5C237.41,-1069.5 417.966,-1069.5 417.966,-1069.5 423.966,-1069.5 429.966,-1075.5 429.966,-1081.5 429.966,-1081.5 429.966,-1325.5 429.966,-1325.5 429.966,-1331.5 423.966,-1337.5 417.966,-1337.5 417.966,-1337.5 237.41,-1337.5 237.41,-1337.5 231.41,-1337.5 225.41,-1331.5 225.41,-1325.5 225.41,-1325.5 225.41,-1081.5 225.41,-1081.5 225.41,-1075.5 231.41,-1069.5 237.41,-1069.5"/>
<text text-anchor="middle" x="327.688" y="-1322.3" font-family="Times,serif" font-size="14.00">User</text>
<polyline fill="none" stroke="black" points="225.41,-1315.5 429.966,-1315.5 "/>
<text text-anchor="start" x="233.41" y="-1300.3" font-family="Times,serif" font-size="14.00">id :integer</text>
<text text-anchor="start" x="233.41" y="-1286.3" font-family="Times,serif" font-size="14.00">email :string</text>
<text text-anchor="start" x="233.41" y="-1272.3" font-family="Times,serif" font-size="14.00">encrypted_password :string</text>
<text text-anchor="start" x="233.41" y="-1258.3" font-family="Times,serif" font-size="14.00">reset_password_token :string</text>
<text text-anchor="start" x="233.41" y="-1244.3" font-family="Times,serif" font-size="14.00">reset_password_sent_at :datetime</text>
<text text-anchor="start" x="233.41" y="-1230.3" font-family="Times,serif" font-size="14.00">remember_created_at :datetime</text>
<text text-anchor="start" x="233.41" y="-1216.3" font-family="Times,serif" font-size="14.00">sign_in_count :integer</text>
<text text-anchor="start" x="233.41" y="-1202.3" font-family="Times,serif" font-size="14.00">current_sign_in_at :datetime</text>
<text text-anchor="start" x="233.41" y="-1188.3" font-family="Times,serif" font-size="14.00">last_sign_in_at :datetime</text>
<text text-anchor="start" x="233.41" y="-1174.3" font-family="Times,serif" font-size="14.00">current_sign_in_ip :string</text>
<text text-anchor="start" x="233.41" y="-1160.3" font-family="Times,serif" font-size="14.00">last_sign_in_ip :string</text>
<text text-anchor="start" x="233.41" y="-1146.3" font-family="Times,serif" font-size="14.00">created_at :datetime</text>
<text text-anchor="start" x="233.41" y="-1132.3" font-family="Times,serif" font-size="14.00">updated_at :datetime</text>
<text text-anchor="start" x="233.41" y="-1118.3" font-family="Times,serif" font-size="14.00">confirmation_token :string</text>
<text text-anchor="start" x="233.41" y="-1104.3" font-family="Times,serif" font-size="14.00">confirmed_at :datetime</text>
<text text-anchor="start" x="233.41" y="-1090.3" font-family="Times,serif" font-size="14.00">confirmation_sent_at :datetime</text>
<text text-anchor="start" x="233.41" y="-1076.3" font-family="Times,serif" font-size="14.00">unconfirmed_email :string</text>
</g>
<!-- User&#45;&gt;Business -->
<g id="edge5" class="edge"><title>User&#45;&gt;Business</title>
<path fill="none" stroke="#a85aeb" d="M327.688,-1060.96C327.688,-1054.35 327.688,-1047.71 327.688,-1041.12"/>
<ellipse fill="none" stroke="#a85aeb" cx="327.688" cy="-1065.22" rx="4" ry="4"/>
<ellipse fill="#a85aeb" stroke="#a85aeb" cx="327.688" cy="-1036.78" rx="4" ry="4"/>
</g>
</g>
</svg>
