<?xml version="1.0" encoding="UTF-8" standalone="no"?>
<!DOCTYPE svg PUBLIC "-//W3C//DTD SVG 1.1//EN"
 "http://www.w3.org/Graphics/SVG/1.1/DTD/svg11.dtd">
<!-- Generated by graphviz version 2.38.0 (20140413.2041)
 -->
<!-- Title: models_diagram Pages: 1 -->
<svg width="438pt" height="649pt"
 viewBox="0.00 0.00 437.97 649.00" xmlns="http://www.w3.org/2000/svg" xmlns:xlink="http://www.w3.org/1999/xlink">
<g id="graph0" class="graph" transform="scale(1 1) rotate(0) translate(4 645)">
<title>models_diagram</title>
<polygon fill="white" stroke="none" points="-4,4 -4,-645 433.966,-645 433.966,4 -4,4"/>
<!-- _diagram_info -->
<g id="node1" class="node"><title>_diagram_info</title>
<text text-anchor="start" x="8" y="-556.6" font-family="Times,serif" font-size="13.00">Models diagram</text>
<text text-anchor="start" x="8" y="-543.6" font-family="Times,serif" font-size="13.00">Date: Feb 18 2015 &#45; 10:07</text>
<text text-anchor="start" x="8" y="-530.6" font-family="Times,serif" font-size="13.00">Migration version: 20150216190751</text>
<text text-anchor="start" x="8" y="-517.6" font-family="Times,serif" font-size="13.00">Generated by RailRoady 1.3.0</text>
<text text-anchor="start" x="8" y="-504.6" font-family="Times,serif" font-size="13.00">http://railroady.prestonlee.com</text>
</g>
<!-- Address -->
<g id="node2" class="node"><title>Address</title>
<path fill="none" stroke="black" d="M255.679,-0.5C255.679,-0.5 399.697,-0.5 399.697,-0.5 405.697,-0.5 411.697,-6.5 411.697,-12.5 411.697,-12.5 411.697,-172.5 411.697,-172.5 411.697,-178.5 405.697,-184.5 399.697,-184.5 399.697,-184.5 255.679,-184.5 255.679,-184.5 249.679,-184.5 243.679,-178.5 243.679,-172.5 243.679,-172.5 243.679,-12.5 243.679,-12.5 243.679,-6.5 249.679,-0.5 255.679,-0.5"/>
<text text-anchor="middle" x="327.688" y="-169.3" font-family="Times,serif" font-size="14.00">Address</text>
<polyline fill="none" stroke="black" points="243.679,-162.5 411.697,-162.5 "/>
<text text-anchor="start" x="251.679" y="-147.3" font-family="Times,serif" font-size="14.00">id :integer</text>
<text text-anchor="start" x="251.679" y="-133.3" font-family="Times,serif" font-size="14.00">street :string</text>
<text text-anchor="start" x="251.679" y="-119.3" font-family="Times,serif" font-size="14.00">city :string</text>
<text text-anchor="start" x="251.679" y="-105.3" font-family="Times,serif" font-size="14.00">geographicalRegion :string</text>
<text text-anchor="start" x="251.679" y="-91.3" font-family="Times,serif" font-size="14.00">country :string</text>
<text text-anchor="start" x="251.679" y="-77.3" font-family="Times,serif" font-size="14.00">postal_code :string</text>
<text text-anchor="start" x="251.679" y="-63.3" font-family="Times,serif" font-size="14.00">business_id :integer</text>
<text text-anchor="start" x="251.679" y="-49.3" font-family="Times,serif" font-size="14.00">created_at :datetime</text>
<text text-anchor="start" x="251.679" y="-35.3" font-family="Times,serif" font-size="14.00">updated_at :datetime</text>
<text text-anchor="start" x="251.679" y="-21.3" font-family="Times,serif" font-size="14.00">latitude :float</text>
<text text-anchor="start" x="251.679" y="-7.3" font-family="Times,serif" font-size="14.00">longitude :float</text>
</g>
<!-- Business -->
<g id="node3" class="node"><title>Business</title>
<path fill="none" stroke="black" d="M257.617,-221.5C257.617,-221.5 397.759,-221.5 397.759,-221.5 403.759,-221.5 409.759,-227.5 409.759,-233.5 409.759,-233.5 409.759,-379.5 409.759,-379.5 409.759,-385.5 403.759,-391.5 397.759,-391.5 397.759,-391.5 257.617,-391.5 257.617,-391.5 251.617,-391.5 245.617,-385.5 245.617,-379.5 245.617,-379.5 245.617,-233.5 245.617,-233.5 245.617,-227.5 251.617,-221.5 257.617,-221.5"/>
<text text-anchor="middle" x="327.688" y="-376.3" font-family="Times,serif" font-size="14.00">Business</text>
<polyline fill="none" stroke="black" points="245.617,-369.5 409.759,-369.5 "/>
<text text-anchor="start" x="253.617" y="-354.3" font-family="Times,serif" font-size="14.00">id :integer</text>
<text text-anchor="start" x="253.617" y="-340.3" font-family="Times,serif" font-size="14.00">name :string</text>
<text text-anchor="start" x="253.617" y="-326.3" font-family="Times,serif" font-size="14.00">summary :text</text>
<text text-anchor="start" x="253.617" y="-312.3" font-family="Times,serif" font-size="14.00">tagLine :string</text>
<text text-anchor="start" x="253.617" y="-298.3" font-family="Times,serif" font-size="14.00">hoursOfOpperation :string</text>
<text text-anchor="start" x="253.617" y="-284.3" font-family="Times,serif" font-size="14.00">serviceValidTil :date</text>
<text text-anchor="start" x="253.617" y="-270.3" font-family="Times,serif" font-size="14.00">domain :string</text>
<text text-anchor="start" x="253.617" y="-256.3" font-family="Times,serif" font-size="14.00">created_at :datetime</text>
<text text-anchor="start" x="253.617" y="-242.3" font-family="Times,serif" font-size="14.00">updated_at :datetime</text>
<text text-anchor="start" x="253.617" y="-228.3" font-family="Times,serif" font-size="14.00">user_id :integer</text>
</g>
<!-- Business&#45;&gt;Address -->
<g id="edge1" class="edge"><title>Business&#45;&gt;Address</title>
<path fill="none" stroke="#c4c748" d="M327.688,-213.183C327.688,-207.154 327.688,-201.065 327.688,-194.996"/>
<ellipse fill="none" stroke="#c4c748" cx="327.688" cy="-217.407" rx="4" ry="4"/>
<polygon fill="#c4c748" stroke="#c4c748" points="327.688,-194.815 332.188,-184.815 327.688,-189.815 327.688,-184.815 327.688,-184.815 327.688,-184.815 327.688,-189.815 323.188,-184.815 327.688,-194.815 327.688,-194.815"/>
</g>
<!-- User -->
<g id="node4" class="node"><title>User</title>
<path fill="none" stroke="black" d="M237.41,-428.5C237.41,-428.5 417.966,-428.5 417.966,-428.5 423.966,-428.5 429.966,-434.5 429.966,-440.5 429.966,-440.5 429.966,-628.5 429.966,-628.5 429.966,-634.5 423.966,-640.5 417.966,-640.5 417.966,-640.5 237.41,-640.5 237.41,-640.5 231.41,-640.5 225.41,-634.5 225.41,-628.5 225.41,-628.5 225.41,-440.5 225.41,-440.5 225.41,-434.5 231.41,-428.5 237.41,-428.5"/>
<text text-anchor="middle" x="327.688" y="-625.3" font-family="Times,serif" font-size="14.00">User</text>
<polyline fill="none" stroke="black" points="225.41,-618.5 429.966,-618.5 "/>
<text text-anchor="start" x="233.41" y="-603.3" font-family="Times,serif" font-size="14.00">id :integer</text>
<text text-anchor="start" x="233.41" y="-589.3" font-family="Times,serif" font-size="14.00">email :string</text>
<text text-anchor="start" x="233.41" y="-575.3" font-family="Times,serif" font-size="14.00">encrypted_password :string</text>
<text text-anchor="start" x="233.41" y="-561.3" font-family="Times,serif" font-size="14.00">reset_password_token :string</text>
<text text-anchor="start" x="233.41" y="-547.3" font-family="Times,serif" font-size="14.00">reset_password_sent_at :datetime</text>
<text text-anchor="start" x="233.41" y="-533.3" font-family="Times,serif" font-size="14.00">remember_created_at :datetime</text>
<text text-anchor="start" x="233.41" y="-519.3" font-family="Times,serif" font-size="14.00">sign_in_count :integer</text>
<text text-anchor="start" x="233.41" y="-505.3" font-family="Times,serif" font-size="14.00">current_sign_in_at :datetime</text>
<text text-anchor="start" x="233.41" y="-491.3" font-family="Times,serif" font-size="14.00">last_sign_in_at :datetime</text>
<text text-anchor="start" x="233.41" y="-477.3" font-family="Times,serif" font-size="14.00">current_sign_in_ip :string</text>
<text text-anchor="start" x="233.41" y="-463.3" font-family="Times,serif" font-size="14.00">last_sign_in_ip :string</text>
<text text-anchor="start" x="233.41" y="-449.3" font-family="Times,serif" font-size="14.00">created_at :datetime</text>
<text text-anchor="start" x="233.41" y="-435.3" font-family="Times,serif" font-size="14.00">updated_at :datetime</text>
</g>
<!-- User&#45;&gt;Business -->
<g id="edge2" class="edge"><title>User&#45;&gt;Business</title>
<path fill="none" stroke="#6cda97" d="M327.688,-420.333C327.688,-413.543 327.688,-406.754 327.688,-400.063"/>
<ellipse fill="none" stroke="#6cda97" cx="327.688" cy="-424.439" rx="4" ry="4"/>
<ellipse fill="#6cda97" stroke="#6cda97" cx="327.688" cy="-395.649" rx="4" ry="4"/>
</g>
</g>
</svg>
